SplineFontDB: 3.0
FontName: Annaheim
FullName: Annaheim
FamilyName: Annaheim Book
Weight: Normal
Copyright: Copyright (c) 2010-12 by vernon adams. All rights reserved.
Version: 1.000
FONDName: Annaheim
ItalicAngle: 0
UnderlinePosition: 0
UnderlineWidth: 0
Ascent: 1638
Descent: 410
UFOAscent: 1308
UFODescent: -389
LayerCount: 2
Layer: 0 0 "Back"  1
Layer: 1 0 "Fore"  0
OS2Version: 0
OS2_WeightWidthSlopeOnly: 0
OS2_UseTypoMetrics: 0
CreationTime: 1343950570
ModificationTime: 1343951534
PfmFamily: 0
TTFWeight: 400
TTFWidth: 5
LineGap: 0
VLineGap: 0
OS2TypoAscent: 0
OS2TypoAOffset: 1
OS2TypoDescent: 0
OS2TypoDOffset: 1
OS2TypoLinegap: 0
OS2WinAscent: 1880
OS2WinAOffset: 0
OS2WinDescent: 465
OS2WinDOffset: 0
HheadAscent: 1880
HheadAOffset: 0
HheadDescent: -465
HheadDOffset: 0
OS2FamilyClass: 2048
OS2Vendor: 'newt'
Lookup: 258 0 0 "'kern' Horizontal Kerning lookup 0"  {"'kern' Horizontal Kerning lookup 0 per glyph data 0"  "'kern' Horizontal Kerning lookup 0 kerning class 1"  } ['kern' ('DFLT' <'dflt' > 'latn' <'dflt' > ) ]
MarkAttachClasses: 1
DEI: 91125
KernClass2: 31 26 "'kern' Horizontal Kerning lookup 0 kerning class 1" 
 50 A Aacute Acircumflex Adieresis Agrave Aring Atilde
 1 B
 1 C
 55 D O Oacute Ocircumflex Odieresis Ograve Oslash Otilde Q
 1 F
 1 G
 1 K
 1 L
 1 P
 1 R
 1 S
 1 T
 1 V
 1 W
 1 X
 11 Y Ydieresis
 55 b o oacute ocircumflex odieresis ograve oslash otilde p
 1 e
 1 f
 1 g
 1 k
 1 l
 1 r
 1 s
 1 t
 1 v
 1 w
 1 x
 11 y ydieresis
 1 z
 50 A Aacute Acircumflex Adieresis Agrave Aring Atilde
 69 C Ccedilla G O OE Oacute Ocircumflex Odieresis Ograve Oslash Otilde Q
 1 J
 1 S
 1 T
 37 U Uacute Ucircumflex Udieresis Ugrave
 1 V
 1 W
 11 Y Ydieresis
 53 a aacute acircumflex adieresis ae agrave aring atilde
 107 c ccedilla d e eacute ecircumflex edieresis egrave o oacute ocircumflex odieresis oe ograve oslash otilde q
 5 colon
 5 comma
 1 g
 1 j
 6 period
 13 quotedblright
 10 quoteright
 1 s
 37 u uacute ucircumflex udieresis ugrave
 1 v
 1 w
 1 x

StartChar: A
Encoding: 65 65 1
Width: 1147
VWidth: 0
Flags: HW
PickledData: "(dp1
S'com.typemytype.robofont.layerData'
p2
(dp3
s."
LayerCount: 2
Fore
SplineSet
802 420 m 1
 356 420 l 1
 583 1174 l 1
 802 420 l 1
930 0 m 1
 1060 0 l 1
 678 1284 l 1
 487 1284 l 1
 87 0 l 1
 226 0 l 1
 326 328 l 1
 833 328 l 1
 930 0 l 1
EndSplineSet
EndChar

StartChar: AE
Encoding: 198 198 2
Width: 1341
VWidth: 0
Flags: HW
LayerCount: 2
Fore
SplineSet
373 442 m 1
 651 442 l 1
 651 1262 l 1
 628 1262 l 1
 373 442 l 1
823 649 m 1
 823 111 l 1
 1203 111 l 1
 1212 0 l 1
 691 0 l 1
 691 328 l 1
 338 328 l 1
 235 0 l 1
 109 0 l 1
 547 1374 l 1
 1160 1374 l 1
 1160 1262 l 1
 790 1262 l 1
 790 760 l 1
 1136 760 l 1
 1136 649 l 1
 823 649 l 1
EndSplineSet
EndChar

StartChar: Aring
Encoding: 197 197 7
Width: 1175
VWidth: 0
Flags: HW
LayerCount: 2
Fore
SplineSet
588 1804 m 0
 656 1804 690 1769 690 1698 c 0
 690 1630 652 1591 588 1591 c 0
 523 1591 484 1630 484 1698 c 0
 484 1769 519 1804 588 1804 c 0
586 1513 m 0
 694 1513 765 1583 765 1698 c 0
 765 1811 695 1880 588 1880 c 0
 481 1880 411 1813 411 1698 c 0
 411 1582 479 1513 586 1513 c 0
850 328 m 1
 940 0 l 1
 1066 0 l 1
 682 1374 l 1
 503 1374 l 1
 111 0 l 1
 234 0 l 1
 326 328 l 1
 850 328 l 1
602 1268 m 1
 818 440 l 1
 357 440 l 1
 566 1214 l 1
 602 1268 l 1
EndSplineSet
EndChar

StartChar: Atilde
Encoding: 195 195 8
Width: 1175
VWidth: 0
Flags: HW
LayerCount: 2
Fore
SplineSet
312 1675 m 1
 315 1679 l 1
 384 1632 l 1
 415 1674 452 1715 482 1715 c 0
 494 1715 509 1710 526 1699 c 2
 584 1663 l 1
 584 1663 589 1660 598 1654 c 2
 616 1643 l 1
 640 1638 672 1612 712 1612 c 0
 764 1612 824 1653 862 1746 c 1
 798 1791 l 1
 770 1750 734 1709 704 1709 c 0
 681 1709 620 1750 607 1758 c 0
 550 1791 507 1808 480 1808 c 0
 425 1808 363 1774 312 1675 c 1
850 328 m 1
 940 0 l 1
 1066 0 l 1
 682 1374 l 1
 503 1374 l 1
 111 0 l 1
 234 0 l 1
 326 328 l 1
 850 328 l 1
602 1268 m 1
 818 440 l 1
 357 440 l 1
 566 1214 l 1
 602 1268 l 1
EndSplineSet
EndChar

StartChar: B
Encoding: 66 66 9
Width: 1063
VWidth: 0
Flags: HW
PickledData: "(dp1
S'com.typemytype.robofont.layerData'
p2
(dp3
s."
LayerCount: 2
Fore
SplineSet
709 687 m 1
 853 722 903 810 903 971 c 0
 903 1222 764 1284 470 1284 c 2
 149 1284 l 1
 149 0 l 1
 467 0 l 2
 780 0 949 65 949 377 c 0
 949 556 852 654 709 687 c 1
821 375 m 0
 821 142 694 104 474 104 c 2
 277 104 l 1
 277 629 l 1
 511 629 l 2
 712 629 821 555 821 375 c 0
510 723 m 2
 277 723 l 1
 277 1180 l 1
 494 1180 l 2
 701 1180 791 1132 791 971 c 0
 791 781 700 723 510 723 c 2
EndSplineSet
EndChar

StartChar: C
Encoding: 67 67 10
Width: 1075
VWidth: 0
Flags: HW
PickledData: "(dp1
S'com.typemytype.robofont.layerData'
p2
(dp3
s."
LayerCount: 2
Fore
SplineSet
260 640 m 0
 260 1093 363 1196 596 1196 c 0
 669 1196 746 1183 820 1152 c 1
 820 965 l 1
 932 965 l 1
 932 1223 l 1
 809 1280 697 1308 595 1308 c 0
 255 1308 132 1115 132 643 c 0
 132 145 290 -16 597 -16 c 0
 732 -16 847 11 960 72 c 1
 917 174 l 1
 803 117 695 96 610 96 c 0
 367 96 260 216 260 640 c 0
EndSplineSet
EndChar

StartChar: Ccedilla
Encoding: 199 199 11
Width: 1095
VWidth: 0
Flags: HW
LayerCount: 2
Fore
SplineSet
565 -122 m 1
 565 -121 l 1
 568 -111 572 -91 574 -82 c 1
 541 -82 508 -85 473 -92 c 1
 472 -188 l 1
 498 -191 520 -196 539 -202 c 1
 604 -202 639 -224 639 -288 c 0
 639 -345 609 -376 556 -376 c 2
 537 -376 l 1
 499 -373 470 -366 451 -355 c 1
 436 -435 l 1
 479 -453 525 -465 566 -465 c 0
 667 -465 734 -400 734 -284 c 0
 734 -177 666 -122 565 -122 c 1
963 131 m 1
 965 133 l 1
 910 231 l 1
 822 125 709 95 602 95 c 0
 348 95 257 301 257 685 c 0
 257 1109 360 1276 603 1276 c 0
 674 1276 743 1260 810 1229 c 1
 826 1168 837 1102 843 1032 c 1
 956 1057 l 1
 951 1115 925 1286 921 1317 c 1
 806 1369 699 1395 600 1395 c 0
 231 1395 130 1098 130 676 c 0
 130 192 277 -28 600 -28 c 0
 721 -28 794 3 873 34 c 1
 911 53 941 86 963 131 c 1
EndSplineSet
EndChar

StartChar: D
Encoding: 68 68 12
Width: 1130
VWidth: 0
Flags: HW
PickledData: "(dp1
S'com.typemytype.robofont.layerData'
p2
(dp3
s."
LayerCount: 2
Fore
SplineSet
456 0 m 2
 149 0 l 1
 149 1284 l 1
 445 1284 l 2
 899 1284 1013 1102 1013 637 c 0
 1013 230 928 0 456 0 c 2
445 1184 m 2
 277 1184 l 1
 277 104 l 1
 456 104 l 2
 840 104 885 270 885 637 c 0
 885 1031 820 1184 445 1184 c 2
EndSplineSet
EndChar

StartChar: Delta
Encoding: 916 916 13
Width: 1082
VWidth: 0
Flags: HW
LayerCount: 2
Fore
SplineSet
246 102 m 1
 539 1245 l 1
 563 1245 l 1
 838 102 l 1
 246 102 l 1
970 0 m 1
 640 1339 l 1
 464 1339 l 1
 113 0 l 1
 970 0 l 1
EndSplineSet
EndChar

StartChar: E
Encoding: 69 69 14
Width: 929
VWidth: 0
Flags: HW
PickledData: "(dp1
S'com.typemytype.robofont.layerData'
p2
(dp3
s."
LayerCount: 2
Fore
SplineSet
277 649 m 1
 277 104 l 1
 822 104 l 1
 838 0 l 1
 149 0 l 1
 149 1284 l 1
 834 1284 l 1
 812 1180 l 1
 277 1180 l 1
 277 745 l 1
 778 745 l 1
 778 649 l 1
 277 649 l 1
EndSplineSet
EndChar

StartChar: Euro
Encoding: 8364 8364 20
Width: 1147
VWidth: 0
Flags: HW
LayerCount: 2
Fore
SplineSet
205 679 m 1
 202 679 l 1
 202 597 l 1
 123 597 l 1
 123 499 l 1
 209 499 l 1
 240 184 354 -26 654 -26 c 0
 748 -26 845 -8 940 30 c 0
 975 44 1003 74 1023 114 c 1
 969 204 l 1
 893 115 758 96 668 96 c 0
 454 96 365 245 337 499 c 1
 772 499 l 1
 772 597 l 1
 332 597 l 1
 331 630 330 657 330 678 c 0
 330 711 331 734 332 747 c 1
 772 747 l 1
 772 843 l 1
 337 843 l 1
 360 1082 440 1246 663 1246 c 0
 727 1246 873 1234 956 1141 c 1
 1015 1231 l 1
 996 1264 972 1290 943 1309 c 1
 836 1347 741 1366 657 1366 c 0
 362 1366 241 1159 212 844 c 1
 126 844 l 1
 126 748 l 1
 207 748 l 1
 206 735 205 712 205 679 c 1
EndSplineSet
EndChar

StartChar: F
Encoding: 70 70 21
Width: 890
VWidth: 0
Flags: HW
PickledData: "(dp1
S'com.typemytype.robofont.layerData'
p2
(dp3
s."
LayerCount: 2
Fore
SplineSet
277 697 m 1
 733 697 l 1
 733 603 l 1
 277 603 l 1
 277 0 l 1
 149 0 l 1
 149 1284 l 1
 816 1284 l 1
 797 1180 l 1
 277 1180 l 1
 277 697 l 1
EndSplineSet
EndChar

StartChar: G
Encoding: 71 71 22
Width: 1125
VWidth: 0
Flags: HW
PickledData: "(dp1
S'com.typemytype.robofont.layerData'
p2
(dp3
s."
LayerCount: 2
Fore
SplineSet
996 88 m 1
 996 666 l 1
 605 666 l 1
 605 551 l 1
 868 551 l 1
 868 152 l 1
 797 119 706 96 615 96 c 0
 333 96 260 251 260 652 c 0
 260 1064 343 1196 611 1196 c 0
 698 1196 816 1180 904 1131 c 1
 931 1235 l 1
 846 1275 720 1308 612 1308 c 0
 283 1308 132 1159 132 649 c 0
 132 194 241 -16 608 -16 c 0
 810 -16 930 54 996 88 c 1
EndSplineSet
EndChar

StartChar: H
Encoding: 72 72 23
Width: 1130
VWidth: 0
Flags: HW
LayerCount: 2
Fore
SplineSet
853 1284 m 1
 981 1284 l 1
 981 0 l 1
 853 0 l 1
 853 615 l 1
 277 615 l 1
 277 0 l 1
 149 0 l 1
 149 1284 l 1
 277 1284 l 1
 277 720 l 1
 853 720 l 1
 853 1284 l 1
EndSplineSet
EndChar

StartChar: I
Encoding: 73 73 24
Width: 752
VWidth: 0
Flags: HW
PickledData: "(dp1
S'com.typemytype.robofont.layerData'
p2
(dp3
s."
LayerCount: 2
Fore
SplineSet
443 1180 m 1
 443 104 l 1
 631 104 l 1
 631 0 l 1
 121 0 l 1
 121 104 l 1
 315 104 l 1
 315 1180 l 1
 121 1180 l 1
 121 1284 l 1
 627 1284 l 1
 627 1180 l 1
 443 1180 l 1
EndSplineSet
EndChar

StartChar: J
Encoding: 74 74 29
Width: 711
VWidth: 0
Flags: HW
PickledData: "(dp1
S'com.typemytype.robofont.layerData'
p2
(dp3
s."
LayerCount: 2
Fore
SplineSet
548 1284 m 1
 196 1284 l 1
 196 1180 l 1
 420 1180 l 1
 420 91 l 2
 420 -62 381 -127 268 -127 c 0
 221 -127 164 -116 116 -99 c 1
 101 -200 l 1
 156 -221 220 -232 277 -232 c 0
 449 -232 548 -155 548 91 c 2
 548 1284 l 1
EndSplineSet
EndChar

StartChar: K
Encoding: 75 75 30
Width: 1043
VWidth: 0
Flags: HW
PickledData: "(dp1
S'com.typemytype.robofont.layerData'
p2
(dp3
s."
LayerCount: 2
Fore
SplineSet
277 0 m 1
 277 480 l 1
 437 658 l 1
 832 0 l 1
 973 0 l 1
 536 721 l 1
 961 1284 l 1
 811 1284 l 1
 418 778 l 1
 277 609 l 1
 277 1284 l 1
 149 1284 l 1
 149 0 l 1
 277 0 l 1
EndSplineSet
EndChar

StartChar: L
Encoding: 76 76 31
Width: 845
VWidth: 0
Flags: HW
PickledData: "(dp1
S'com.typemytype.robofont.layerData'
p2
(dp3
s."
LayerCount: 2
Fore
SplineSet
277 1284 m 1
 277 104 l 1
 766 104 l 1
 786 0 l 1
 149 0 l 1
 149 1284 l 1
 277 1284 l 1
EndSplineSet
EndChar

StartChar: M
Encoding: 77 77 32
Width: 1362
VWidth: 0
Flags: HW
PickledData: "(dp1
S'com.typemytype.robofont.layerData'
p2
(dp3
s."
LayerCount: 2
Fore
SplineSet
1012 1089 m 1
 1107 0 l 1
 1225 0 l 1
 1116 1284 l 1
 975 1284 l 1
 681 582 l 1
 379 1284 l 1
 237 1284 l 1
 137 0 l 1
 255 0 l 1
 341 1091 l 1
 624 438 l 1
 739 438 l 1
 1012 1089 l 1
EndSplineSet
EndChar

StartChar: N
Encoding: 78 78 33
Width: 1193
VWidth: 0
Flags: HW
PickledData: "(dp1
S'com.typemytype.robofont.layerData'
p2
(dp3
s."
LayerCount: 2
Fore
SplineSet
928 1284 m 1
 1044 1284 l 1
 1044 0 l 1
 918 0 l 1
 271 1081 l 1
 271 0 l 1
 149 0 l 1
 149 1284 l 1
 285 1284 l 1
 928 219 l 1
 928 1284 l 1
EndSplineSet
EndChar

StartChar: Ntilde
Encoding: 209 209 34
Width: 1138
VWidth: 0
Flags: HW
LayerCount: 2
Fore
SplineSet
298 1675 m 2
 297 1679 l 1
 299.175949544 1677.47358763 l 2
 298.782926656 1676.65295678 298.390943475 1675.82842784 298 1675 c 2
537 930 m 2
 280 1374 l 1
 151 1374 l 1
 151 0 l 1
 266 0 l 1
 266 1167 l 1
 269 1167 l 1
 382 971 l 2
 474 812 798 253 826 205 c 1
 863 0 l 1
 988 0 l 1
 988 1374 l 1
 872 1374 l 1
 872 352 l 1
 869 352 l 1
 793 487 682 679 537 930 c 2
299.175949544 1677.47358763 m 1
 364 1632 l 1
 402 1682 430 1715 461 1715 c 0
 473 1715 488 1709 505 1699 c 2
 564 1663 l 2
 567 1662 584 1651 588 1648 c 2
 616 1633 l 1
 642 1624 666 1612 692 1612 c 0
 748 1612 802 1651 843 1746 c 1
 778 1791 l 1
 740 1735 712 1709 686 1709 c 0
 666 1709 648 1723 589 1758 c 0
 532 1791 488 1808 460 1808 c 0
 394.614339747 1808 341.006322928 1764.81530741 299.175949544 1677.47358763 c 1
EndSplineSet
EndChar

StartChar: O
Encoding: 79 79 35
Width: 1160
VWidth: 0
Flags: HW
PickledData: "(dp1
S'com.typemytype.robofont.layerData'
p2
(dp3
s."
LayerCount: 2
Fore
SplineSet
580 1308 m 0
 929 1308 1028 1065 1028 648 c 0
 1028 232 941 -16 580 -16 c 0
 219 -16 132 232 132 648 c 0
 132 1065 231 1308 580 1308 c 0
580 96 m 0
 830 96 900 264 900 645 c 0
 900 1030 827 1196 580 1196 c 0
 333 1196 260 1030 260 645 c 0
 260 264 330 96 580 96 c 0
EndSplineSet
EndChar

StartChar: OE
Encoding: 338 338 36
Width: 2131
VWidth: 0
Flags: HW
PickledData: "(dp1
S'com.typemytype.robofont.layerData'
p2
(dp3
s."
LayerCount: 2
Fore
SplineSet
917 114 m 1
 917 0 l 1
 1606 0 l 1
 1590 104 l 1
 1045 104 l 1
 1045 649 l 1
 1546 649 l 1
 1546 745 l 1
 1045 745 l 1
 1045 1180 l 1
 1580 1180 l 1
 1602 1284 l 1
 917 1284 l 1
 917 1173 l 1
 852 1261 750 1308 597 1308 c 0
 248 1308 149 1065 149 648 c 0
 149 232 236 -16 597 -16 c 0
 752 -16 852 30 917 114 c 1
277 645 m 0
 277 1030 350 1196 597 1196 c 0
 844 1196 917 1030 917 645 c 0
 917 264 847 96 597 96 c 0
 347 96 277 264 277 645 c 0
EndSplineSet
EndChar

StartChar: Omega
Encoding: 937 937 41
Width: 1055
VWidth: 0
Flags: HW
LayerCount: 2
Fore
SplineSet
804 660 m 1
 805 659 l 1
 805 413 740 158 580 102 c 1
 580 0 l 1
 899 0 l 1
 899 102 l 1
 716 102 l 1
 863 214 913 396 913 710 c 0
 913 1085 846 1363 526 1363 c 0
 194 1363 139 1071 139 675 c 0
 139 391 193 211 336 103 c 1
 336 93 l 1
 165 93 l 1
 165 1 l 1
 473 1 l 1
 473 103 l 1
 344 153 275 318 251 570 c 1
 246 763 l 1
 246 1029 296 1249 526 1256 c 1
 772 1245 804 1025 804 660 c 1
EndSplineSet
EndChar

StartChar: P
Encoding: 80 80 44
Width: 989
VWidth: 0
Flags: HW
PickledData: "(dp1
S'com.typemytype.robofont.layerData'
p2
(dp3
s."
LayerCount: 2
Fore
SplineSet
277 622 m 1
 277 1173 l 1
 402 1184 l 2
 439 1187 474 1187 506 1187 c 0
 694 1187 789 1124 789 900 c 0
 789 644 666 622 376 622 c 2
 277 622 l 1
498 1289 m 0
 461 1289 421 1288 380 1284 c 2
 149 1264 l 1
 149 0 l 1
 277 0 l 1
 277 522 l 1
 399 522 l 2
 744 522 917 594 917 902 c 0
 917 1197 757 1289 498 1289 c 0
EndSplineSet
EndChar

StartChar: Q
Encoding: 81 81 45
Width: 1160
VWidth: 0
Flags: HW
LayerCount: 2
Fore
SplineSet
580 96 m 0
 330 96 260 264 260 645 c 0
 260 1030 333 1196 580 1196 c 0
 827 1196 900 1030 900 645 c 0
 900 419 875 267 803 180 c 1
 681 351 l 1
 610 295 l 1
 733 124 l 1
 692 102 641 96 580 96 c 0
936 -159 m 1
 1007 -104 l 1
 875 80 l 1
 993 188 1028 384 1028 648 c 0
 1028 1065 929 1308 580 1308 c 0
 231 1308 132 1065 132 648 c 0
 132 232 219 -16 580 -16 c 0
 670 -16 742 -1 801 29 c 1
 936 -159 l 1
EndSplineSet
EndChar

StartChar: R
Encoding: 82 82 46
Width: 1071
VWidth: 0
Flags: HW
PickledData: "(dp1
S'com.typemytype.robofont.layerData'
p2
(dp3
s."
LayerCount: 2
Fore
SplineSet
789 920 m 0
 789 697 689 662 364 662 c 2
 277 662 l 1
 277 1180 l 1
 396 1180 l 2
 656 1180 789 1166 789 920 c 0
975 41 m 1
 975 41 762 381 669 591 c 1
 834 629 917 722 917 922 c 0
 917 1238 743 1284 402 1284 c 2
 149 1284 l 1
 149 0 l 1
 277 0 l 1
 277 567 l 1
 387 567 l 2
 444 567 502 569 550 573 c 1
 663 316 870 -25 870 -25 c 1
 975 41 l 1
EndSplineSet
EndChar

StartChar: S
Encoding: 83 83 47
Width: 986
VWidth: 0
Flags: HW
PickledData: "(dp1
S'com.typemytype.robofont.layerData'
p2
(dp3
s."
LayerCount: 2
Fore
SplineSet
835 1132 m 1
 858 1239 l 1
 749 1284 631 1308 513 1308 c 0
 298 1308 121 1213 121 969 c 0
 121 786 225 701 392 644 c 2
 510 604 l 2
 677 547 761 509 761 336 c 0
 761 149 633 96 477 96 c 0
 366 96 241 125 149 173 c 1
 121 68 l 1
 227 11 368 -16 497 -16 c 0
 729 -16 889 97 889 342 c 0
 889 616 713 665 547 722 c 2
 433 761 l 2
 280 813 249 867 249 972 c 0
 249 1143 375 1196 530 1196 c 0
 657 1196 750 1164 835 1132 c 1
EndSplineSet
EndChar

StartChar: T
Encoding: 84 84 48
Width: 969
VWidth: 0
Flags: HW
PickledData: "(dp1
S'com.typemytype.robofont.layerData'
p2
(dp3
s."
LayerCount: 2
Fore
SplineSet
74 1180 m 1
 74 1284 l 1
 895 1284 l 1
 895 1180 l 1
 546 1180 l 1
 546 0 l 1
 418 0 l 1
 418 1180 l 1
 74 1180 l 1
EndSplineSet
EndChar

StartChar: U
Encoding: 85 85 49
Width: 1114
VWidth: 0
Flags: HW
PickledData: "(dp1
S'com.typemytype.robofont.layerData'
p2
(dp3
s."
LayerCount: 2
Fore
SplineSet
557 96 m 0
 864 96 845 290 845 635 c 2
 845 1284 l 1
 973 1284 l 1
 973 635 l 2
 973 224 943 -16 557 -16 c 0
 171 -16 141 224 141 635 c 2
 141 1284 l 1
 269 1284 l 1
 269 635 l 2
 269 290 250 96 557 96 c 0
EndSplineSet
EndChar

StartChar: V
Encoding: 86 86 54
Width: 1072
VWidth: 0
Flags: HW
PickledData: "(dp1
S'com.typemytype.robofont.layerData'
p2
(dp3
s."
LayerCount: 2
Fore
SplineSet
220 1285 m 1
 88 1285 l 1
 457 0 l 1
 615 0 l 1
 984 1285 l 1
 849 1285 l 1
 734 838 625 468 536 134 c 1
 447 468 335 838 220 1285 c 1
EndSplineSet
EndChar

StartChar: W
Encoding: 87 87 55
Width: 1372
VWidth: 0
Flags: HW
PickledData: "(dp1
S'com.typemytype.robofont.layerData'
p2
(dp3
s."
LayerCount: 2
Fore
SplineSet
394 178 m 1
 236 1284 l 1
 110 1284 l 1
 302 0 l 1
 443 0 l 1
 686 756 l 1
 928 0 l 1
 1070 0 l 1
 1262 1284 l 1
 1136 1284 l 1
 986 176 l 1
 743 924 l 1
 628 924 l 1
 394 178 l 1
EndSplineSet
EndChar

StartChar: X
Encoding: 88 88 56
Width: 1019
VWidth: 0
Flags: HW
PickledData: "(dp1
S'com.typemytype.robofont.layerData'
p2
(dp3
s."
LayerCount: 2
Fore
SplineSet
130 1284 m 1
 422 658 l 1
 104 0 l 1
 242 0 l 1
 513 569 l 1
 787 0 l 1
 915 0 l 1
 595 657 l 1
 880 1284 l 1
 762 1284 l 1
 512 745 l 1
 260 1284 l 1
 130 1284 l 1
EndSplineSet
EndChar

StartChar: Y
Encoding: 89 89 57
Width: 1034
VWidth: 0
Flags: HW
PickledData: "(dp1
S'com.typemytype.robofont.layerData'
p2
(dp3
s."
LayerCount: 2
Fore
SplineSet
453 586 m 1
 453 0 l 1
 581 0 l 1
 581 588 l 1
 965 1284 l 1
 819 1284 l 1
 517 711 l 1
 211 1284 l 1
 69 1284 l 1
 453 586 l 1
EndSplineSet
EndChar

StartChar: Z
Encoding: 90 90 59
Width: 1004
VWidth: 0
Flags: HW
PickledData: "(dp1
S'com.typemytype.robofont.layerData'
p2
(dp3
s."
LayerCount: 2
Fore
SplineSet
894 104 m 1
 285 104 l 1
 863 1176 l 1
 847 1284 l 1
 157 1284 l 1
 157 1180 l 1
 716 1180 l 1
 126 98 l 1
 147 0 l 1
 894 0 l 1
 894 104 l 1
EndSplineSet
EndChar

StartChar: a
Encoding: 97 97 60
Width: 968
VWidth: 0
Flags: HW
PickledData: "(dp1
S'com.typemytype.robofont.layerData'
p2
(dp3
s."
LayerCount: 2
Fore
SplineSet
236 278 m 0
 236 455 469 473 636 473 c 2
 692 473 l 1
 692 151 l 1
 637 115 540 91 452 91 c 0
 312 91 236 153 236 278 c 0
196 951 m 1
 218 845 l 1
 319 876 413 893 478 893 c 0
 640 893 692 828 692 567 c 1
 604 567 l 2
 230 567 116 429 116 284 c 0
 116 85 248 -16 432 -16 c 0
 539 -16 660 25 705 61 c 1
 725 -5 l 1
 820 2 l 2
 819 2 820 172 820 209 c 2
 820 623 l 2
 820 917 678 1000 503 1000 c 0
 435 1000 303 985 196 951 c 1
EndSplineSet
EndChar

StartChar: acute
Encoding: 180 180 63
Width: 410
VWidth: 0
Flags: HW
LayerCount: 2
Fore
SplineSet
112.66 1022.25 m 1
 166.336 973.153 l 1
 166.336 973.153 319.775 1116.97 366.849 1174.49 c 1
 463.779 1282.94 l 1
 358 1362.54 l 1
 112.66 1022.25 l 1
EndSplineSet
EndChar

StartChar: ae
Encoding: 230 230 65
Width: 1289
VWidth: 0
Flags: HW
LayerCount: 2
Fore
SplineSet
1032 560 m 1
 979 560 l 1
 689 560 l 1
 692 786 733 887 867 887 c 0
 989 887 1028 798 1032 560 c 1
390 87 m 1
 390 88 l 1
 281 88 243 147 243 279 c 0
 243 417 311 463 455 463 c 2
 510 463 l 2
 532 463 553 464 577 468 c 1
 577 222 l 1
 549 141 483 87 390 87 c 1
577 575 m 1
 558.3891934 572.06145159 509.075927206 571.040539543 430 571 c 1
 222 565 131 466 131 272 c 0
 131 76 229 -23 378 -23 c 0
 503 -23 592 28 645 131 c 1
 692 28 774 -23 890 -23 c 0
 961 -23 1105 8 1146 109 c 1
 1092 186 l 1
 1081 158 1067 138 1048 127 c 1
 983 101 928 88 882 88 c 0
 834 88 796 102 776 129 c 0
 723 202 696 312 690 455 c 1
 1149 455 l 1
 1153 563 l 1
 1153 871 1067 1000 874 1000 c 0
 769 1000 695 955 653 865 c 1
 631 951 555 994 426 994 c 0
 297 994 208 952 158 869 c 1
 217 787 l 1
 256 846 332 879 421 879 c 0
 440 879 477 870 487 868 c 1
 577 863 577 807 577 575 c 1
EndSplineSet
EndChar

StartChar: ampersand
Encoding: 38 38 67
Width: 1100
VWidth: 0
Flags: HW
LayerCount: 2
Fore
SplineSet
1024 489 m 1
 915 522 l 1
 890.939728885 432.035508005 861.529436256 353.014241834 824.352386545 288.243313317 c 1
 537.165778809 666.922999624 l 1
 657.141983887 768.877764999 768 885.689143964 768 1038 c 0
 768 1220 645 1308 489 1308 c 0
 349 1308 209 1222 209 1041 c 0
 209 954 255 859 312 778 c 1
 378.301947652 689.337831748 l 1
 250.469214257 585.993970496 124 471.870805677 124 291 c 0
 124 96 261 -16 505 -16 c 0
 635.875008795 -16 738.945575656 28.8163702221 818.671144924 100.454861569 c 1
 908 -19 l 1
 1002 54 l 1
 898.28494066 190.757025147 l 1
 959.067938453 276.814020237 999.634799862 381.627931597 1024 489 c 1
466.447025552 760.171621175 m 1
 437 799 l 1
 381 878 337 945 337 1044 c 0
 337 1145 397 1196 492 1196 c 0
 589 1196 640 1145 640 1033 c 0
 640 922.19780267 562.738062851 840.112431537 466.447025552 760.171621175 c 1
449.143083545 594.605641635 m 1
 751.314074501 190.527990977 l 1
 690.794953932 129.862105101 615.076264512 96 519 96 c 0
 332 96 252 169 252 297 c 0
 252 423 335 501 441 588 c 0
 443.705214767 590.19685226 446.419988897 592.398649019 449.143083545 594.605641635 c 1
EndSplineSet
EndChar

StartChar: approxequal
Encoding: 8776 8776 68
Width: 1146
VWidth: 0
Flags: HW
LayerCount: 2
Fore
SplineSet
940 284 m 2
 977 327 l 1
 1017 379 l 1
 1020 380 l 1
 956 441 l 1
 893 355 832 302 778 302 c 0
 739 302 681 324 656 340 c 2
 599 376 l 2
 519 426 438 467 377 467 c 0
 295 467 205 408 123 289 c 1
 189 225 l 1
 248 302 308 368 375 368 c 0
 420 368 467 340 537 300 c 1
 575 275 l 2
 596 261 611 252 621 247 c 2
 663 226 l 2
 699 208 735 202 771 202 c 0
 833 203 894 230 940 284 c 2
943 660 m 2
 980 703 l 1
 1020 755 l 1
 1020 758 l 1
 956 821 l 1
 893 733 832 683 777 683 c 0
 741 683 697 703 609 752 c 0
 470 829 433 848 380 848 c 0
 294 848 211 786 125 667 c 1
 192 603 l 1
 259 691 314 746 377 746 c 0
 410 746 442 733 503 696 c 1
 564 662 l 1
 630 620 l 1
 655 606 725 578 773 578 c 0
 838 579 897 606 943 660 c 2
EndSplineSet
EndChar

StartChar: aring
Encoding: 229 229 69
Width: 976
VWidth: 0
Flags: HW
LayerCount: 2
Fore
SplineSet
598 1293 m 0
 598 1225 562 1189 497 1189 c 0
 433 1189 396 1227 396 1295 c 0
 396 1365 430 1400 497 1400 c 0
 564 1400 598 1364 598 1293 c 0
676 1293 m 0
 676 1410 606 1478 497 1478 c 0
 390 1478 320 1409 320 1295 c 0
 320 1181 389 1111 497 1111 c 0
 605 1111 676 1178 676 1293 c 0
245 286 m 1
 244 287 l 1
 244 463 374 485 544 485 c 2
 562 485 l 1
 635 483 l 2
 664 482 686 482 703 482 c 1
 703 247 l 1
 665 167 547 91 438 91 c 0
 299 91 245 142 245 286 c 1
703 584 m 1
 660.063526934 584 521.902843155 587.81586634 466 588 c 1
 241 582 131 484 131 280 c 0
 131 79 236 -19 429 -19 c 0
 542 -19 650 44 711 111 c 1
 716 50 732 7 759 -18 c 1
 806 -13 833 -10 842 -8 c 1
 831 133 l 1
 815 149 815 161 815 210 c 2
 815 583 l 2
 815 900 759 1000 489 1000 c 0
 324 1000 215 959 162 878 c 1
 217 792 l 1
 272 875 426 889 492 889 c 0
 676 889 703 816 703 584 c 1
EndSplineSet
EndChar

StartChar: asciicircum
Encoding: 94 94 70
Width: 943
VWidth: 0
Flags: HW
PickledData: "(dp1
S'com.typemytype.robofont.layerData'
p2
(dp3
s."
LayerCount: 2
Fore
SplineSet
448 1211 m 1
 247 775 l 1
 128 775 l 1
 380 1308 l 1
 517 1308 l 1
 768 776 l 1
 654 776 l 1
 448 1211 l 1
EndSplineSet
EndChar

StartChar: asciitilde
Encoding: 126 126 71
Width: 1038
VWidth: 0
Flags: HW
LayerCount: 2
Fore
SplineSet
108 530 m 1
 105 530 l 1
 183 469 l 1
 244 558 286 599 338 599 c 0
 367 599 409 578 483 531 c 1
 605 457 646 437 703 437 c 0
 817 437 880 538 930 620 c 1
 854 679 l 1
 799 602 756 553 707 553 c 0
 678 553 636 575 555 622 c 0
 423 698 386 717 334 717 c 0
 245 717 177 637 108 530 c 1
EndSplineSet
EndChar

StartChar: asterisk
Encoding: 42 42 72
Width: 923
VWidth: 0
Flags: HW
LayerCount: 2
Fore
SplineSet
786 1223 m 1
 506 1130 l 1
 506 1425 l 1
 415 1425 l 1
 415 1130 l 1
 134 1223 l 1
 108 1137 l 1
 386 1043 l 1
 213 807 l 1
 286 753 l 1
 460 989 l 1
 635 753 l 1
 708 807 l 1
 534 1043 l 1
 812 1138 l 1
 786 1223 l 1
EndSplineSet
EndChar

StartChar: at
Encoding: 64 64 73
Width: 1212
VWidth: 0
Flags: HW
LayerCount: 2
Fore
SplineSet
767 864 m 1
 766 860 l 1
 759 860 753 853 747 840 c 1
 714 854 682 861 651 861 c 0
 498 861 394 687 394 470 c 0
 394 297 443 172 543 128 c 0
 563 119 581 114 601 114 c 0
 655 114 693 138 731 174 c 1
 779 135 831 116 887 116 c 0
 914 116 941 120 970 129 c 1
 1043 370 1079 630 1079 911 c 1
 1070 1071 872 1173 672 1173 c 0
 333 1173 127 887 127 462 c 0
 127 60 313 -203 632 -203 c 0
 737 -203 844 -182 950 -139 c 1
 916 -33 l 1
 810 -72 713 -92 625 -92 c 0
 369 -92 236 136 236 469 c 0
 236 813 414 1062 661 1062 c 0
 810 1062 943 972 943 836 c 0
 943 774 932 738 908 735 c 1
 875 676 877 687 877 672 c 1
 866.672044423 677.388498562 856.949003778 682.172082192 848.011966023 686.26020691 c 1
 836.288924325 435.778367128 837.933226824 285.933226824 799 247 c 1
 750 214 705 198 664 198 c 0
 550 198 512 307 512 437 c 1
 511 436 l 1
 511 617 546 760 688 760 c 0
 733.826514524 760 774.525906407 754.360165096 810.098175651 743.080495288 c 1
 804.269909772 774.11951903 797.237184555 813.844151831 789 862 c 1
 780 862 775 864 767 864 c 1
848.011966023 686.26020691 m 1
 837.04652968 691.2761946 827.264376797 695.245207734 819 698 c 1
 816.435407068 710.090223821 813.468132285 725.133447886 810.098175651 743.080495288 c 1
 824.205120619 738.607300728 837.505728735 733.247135633 850 727 c 1
 849.294272574 713.137496988 848.634284544 699.557053585 848.011966023 686.26020691 c 1
EndSplineSet
EndChar

StartChar: b
Encoding: 98 98 75
Width: 1036
VWidth: 0
Flags: HW
PickledData: "(dp1
S'com.typemytype.robofont.guides'
p2
(tsS'com.typemytype.robofont.layerData'
p3
(dp4
s."
LayerCount: 2
Fore
SplineSet
278 1358 m 1
 150 1358 l 1
 150 -2 l 1
 254 -10 l 1
 264 50 l 1
 346 6 431 -16 506 -16 c 0
 743 -16 912 126 912 493 c 0
 912 852 736 1000 536 1000 c 0
 452 1000 380 986 278 923 c 1
 278 1358 l 1
278 137 m 1
 278 809 l 1
 387 872 452 893 520 893 c 0
 677 893 784 767 784 491 c 0
 784 206 668 91 488 91 c 0
 425 91 374 92 278 137 c 1
EndSplineSet
EndChar

StartChar: backslash
Encoding: 92 92 76
Width: 884
VWidth: 0
Flags: HW
LayerCount: 2
Fore
SplineSet
159 1473 m 1
 784 -55 l 1
 709 -96 l 1
 83 1432 l 1
 159 1473 l 1
EndSplineSet
EndChar

StartChar: bar
Encoding: 124 124 77
Width: 418
VWidth: 0
Flags: HW
LayerCount: 2
Fore
SplineSet
151 -436 m 1
 151 1526 l 1
 267 1526 l 1
 267 -436 l 1
 151 -436 l 1
EndSplineSet
EndChar

StartChar: braceleft
Encoding: 123 123 78
Width: 691
VWidth: 0
Flags: HW
LayerCount: 2
Fore
SplineSet
272 1038 m 1
 272 1037 l 2
 272 938 270 860 266 801 c 1
 206 762 157 732 120 712 c 1
 120 603 l 1
 187 564 236 535 266 514 c 1
 269 455 271 379 271 285 c 0
 271 254 266 124 266 45 c 0
 266 -265 317 -297 581 -297 c 2
 599 -297 l 1
 607 -195 l 1
 449 -195 388 -184 379 -20 c 1
 379 24 l 2
 379 37 378 52 378 70 c 0
 378 149 384 352 384 463 c 0
 384 504 384 539 383 567 c 1
 377 571 340 595 271 631 c 0
 257 638 242 654 236 664 c 1
 297 697 346 725 383 749 c 1
 383 795 l 2
 383 869 376 1083 376 1215 c 0
 376 1414 383 1459 478 1481 c 0
 522 1491 551 1492 608 1492 c 1
 600 1594 l 1
 503 1594 438 1589 404 1581 c 0
 283 1552 271 1472 271 1266 c 2
 271 1153 l 2
 271 1102 273 1063 272 1038 c 1
EndSplineSet
EndChar

StartChar: braceright
Encoding: 125 125 79
Width: 698
VWidth: 0
Flags: HW
LayerCount: 2
Fore
SplineSet
458.891879299 660.627608213 m 1
 448.834993754 646.052243249 426.951148628 632.655928152 374 602 c 0
 345 585 324 574 313 567 c 1
 313 519 l 2
 313 438 320 202 320 72 c 0
 320 -173 297 -195 89 -195 c 1
 97 -297 l 1
 299 -297 408 -291 419 -119 c 1
 424 -81 426 -9 426 96 c 2
 426 161 l 1
 425 284 l 1
 425 342 l 2
 425 407 426 464 430 513 c 1
 463 536 512 566 576 603 c 1
 576 710 l 1
 521 739 472 769 430 799 c 1
 428 841 426 918 426 1031 c 0
 426 1092 428 1159 428 1246 c 0
 428 1499 397 1545 308 1574 c 0
 281 1583 215 1589 188 1589 c 0
 173 1589 150 1590 118 1590 c 2
 97 1590 l 1
 90 1488 l 1
 294 1488 319 1460 319 1232 c 0
 319 1147 313 928 313 823 c 0
 313 793 314 766 314 744 c 1
 347.455928894 721.368048101 395.43563605 693.894836782 458.891879299 660.627608213 c 1
EndSplineSet
EndChar

StartChar: bracketleft
Encoding: 91 91 80
Width: 604
VWidth: 0
Flags: HW
PickledData: "(dp1
S'com.typemytype.robofont.layerData'
p2
(dp3
s."
LayerCount: 2
Fore
SplineSet
288 0 m 1
 544 0 l 1
 544 -103 l 1
 160 -103 l 1
 160 1358 l 1
 544 1358 l 1
 544 1254 l 1
 288 1254 l 1
 288 0 l 1
EndSplineSet
EndChar

StartChar: bracketright
Encoding: 93 93 81
Width: 604
VWidth: 0
Flags: HW
PickledData: "(dp1
S'com.typemytype.robofont.layerData'
p2
(dp3
s."
LayerCount: 2
Fore
SplineSet
416 1255 m 1
 160 1255 l 1
 160 1358 l 1
 544 1358 l 1
 544 -103 l 1
 160 -103 l 1
 160 1 l 1
 416 1 l 1
 416 1255 l 1
EndSplineSet
EndChar

StartChar: bullet
Encoding: 8226 8226 82
Width: 481
VWidth: 0
Flags: HW
LayerCount: 2
Fore
SplineSet
368 655 m 1
 368 571 330 501 277 469 c 1
 201 469 135 509 110 569 c 1
 110 654 147 725 202 756 c 1
 278 756 345 715 368 655 c 1
EndSplineSet
EndChar

StartChar: c
Encoding: 99 99 83
Width: 911
VWidth: 0
Flags: HW
PickledData: "(dp1
S'com.typemytype.robofont.layerData'
p2
(dp3
s."
LayerCount: 2
Fore
SplineSet
754 191 m 1
 718.220246885 160.18965704 615.269992347 91.8351339886 507 91 c 0
 302 91 252 254 252 494 c 0
 252 733 306 893 508 893 c 0
 565 893 619 882 670 862 c 1
 670 672 l 1
 775 682 l 1
 775 940 l 1
 690 980 603 1000 512 1000 c 0
 253 1000 124 832 124 496 c 0
 124 151 248 -16 508 -16 c 0
 637 -16 763 42 808 102 c 1
 754 191 l 1
EndSplineSet
EndChar

StartChar: caron
Encoding: 711 711 84
Width: 410
VWidth: 0
Flags: HW
LayerCount: 2
Fore
SplineSet
164 1106 m 1
 355.609 1363 l 1
 443.609 1303 l 1
 371.609 1205 294.609 1113 215.609 1022 c 0
 199.343 1002.86 181.809 993.341 164.305 993.341 c 0
 146.744 993.341 129.213 1002.93 113 1022 c 0
 34 1113 -43 1205 -115 1303 c 1
 -27 1363 l 1
 164 1106 l 1
EndSplineSet
EndChar

StartChar: ccedilla
Encoding: 231 231 85
Width: 936
VWidth: 0
Flags: HW
LayerCount: 2
Fore
SplineSet
241 494 m 1
 240 494 l 1
 240 743 299 889 506 889 c 0
 551 889 606 877 669 854 c 1
 677 759 682 699 683 672 c 1
 788 682 l 1
 785 743 777 829 764 940 c 1
 680 981 595 1001 510 1001 c 0
 232 1001 125 818 125 496 c 0
 125 163 239 -20 510 -20 c 0
 582 -20 751 7 800 115 c 1
 747 197 l 1
 695 111 573 90 510 90 c 0
 299 90 241 247 241 494 c 1
480.560887841 -117.011397656 m 1
 491 -80 l 1
 457 -80 422 -83 387 -90 c 1
 386 -186 l 1
 415 -189 438 -193 453 -198 c 1
 520 -198 555 -221 555 -284 c 0
 555 -341 526 -372 471 -372 c 2
 452 -372 l 1
 414 -369 385 -362 366 -351 c 1
 351 -431 l 1
 395 -450 440 -461 478 -461 c 0
 583 -461 648 -396 648 -279 c 0
 648 -172.889369821 582.109161405 -117.917897955 480.560887841 -117.011397656 c 1
EndSplineSet
EndChar

StartChar: cedilla
Encoding: 184 184 86
Width: 936
VWidth: 0
Flags: HW
LayerCount: 2
Fore
SplineSet
480.560887841 -117.011397656 m 1
 491 -80 l 1
 457 -80 422 -83 387 -90 c 1
 386 -186 l 1
 415 -189 438 -193 453 -198 c 1
 520 -198 555 -221 555 -284 c 0
 555 -341 526 -372 471 -372 c 2
 452 -372 l 1
 414 -369 385 -362 366 -351 c 1
 351 -431 l 1
 395 -450 440 -461 478 -461 c 0
 583 -461 648 -396 648 -279 c 0
 648 -172.889369821 582.109161405 -117.917897955 480.560887841 -117.011397656 c 1
EndSplineSet
EndChar

StartChar: cent
Encoding: 162 162 87
Width: 878
VWidth: 0
Flags: HW
LayerCount: 2
Fore
SplineSet
445 -15 m 1
 445 -16 l 1
 445 -147 l 1
 543 -147 l 1
 543 -16 l 1
 611 -8 680 11 751 41 c 1
 723 143 l 1
 627 105 550 86 492 86 c 0
 316 86 229 237 229 487 c 0
 229 705 295 881 492 881 c 0
 559 881 627 869 696 844 c 1
 719 946 l 1
 668 964 608 977 539 984 c 1
 539 1125 l 1
 441 1125 l 1
 441 982 l 1
 230 957 124 792 124 486 c 0
 124 198 226 11 445 -15 c 1
EndSplineSet
EndChar

StartChar: circumflex
Encoding: 710 710 88
Width: 869
VWidth: 0
Flags: HW
LayerCount: 2
Fore
SplineSet
435 1260 m 1
 222 1022 l 1
 136 1102 l 1
 218.829 1195.08 281.785 1266.88 382 1363 c 1
 487 1363 l 1
 586.927 1267.15 650.337 1194.89 733 1102 c 1
 647 1022 l 1
 435 1260 l 1
EndSplineSet
EndChar

StartChar: colon
Encoding: 58 58 89
Width: 481
VWidth: 0
Flags: HW
LayerCount: 2
Fore
SplineSet
340 841 m 1
 340 601 l 1
 141 601 l 1
 141 841 l 1
 340 841 l 1
340 287 m 1
 340 47 l 1
 141 47 l 1
 141 287 l 1
 340 287 l 1
EndSplineSet
EndChar

StartChar: comma
Encoding: 44 44 90
Width: 430
VWidth: 0
Flags: HW
PickledData: "(dp1
S'com.typemytype.robofont.layerData'
p2
(dp3
s."
LayerCount: 2
Fore
SplineSet
305 39 m 2
 305 210 l 1
 113 210 l 1
 113 0 l 1
 208 0 l 1
 205 -61 176 -138 122 -221 c 1
 169 -274 l 1
 252 -178 305 -89 305 39 c 2
EndSplineSet
EndChar

StartChar: copyright
Encoding: 169 169 91
Width: 1056
VWidth: 0
Flags: HW
LayerCount: 2
Fore
SplineSet
540 1097 m 1
 540 1098 l 1
 278 1098 122 900 122 580 c 0
 122 265 267 59 534 59 c 0
 680 59 790 114 863 225 c 1
 870 247 875 271 878 297 c 1
 877.337579 296.779193 876.723913732 296.607141731 876.137473063 296.47308055 c 1
 910.841647683 373.440520146 928.890771956 468.537036209 929 578 c 0
 929 860.383442994 818.884534039 1049.46294155 599.424266865 1078.96132003 c 1
 581.676008942 1090.98710707 561.763065051 1097.00000058 540 1097 c 1
EndSplineSet
EndChar

StartChar: d
Encoding: 100 100 92
Width: 1036
VWidth: 0
Flags: HW
PickledData: "(dp1
S'com.typemytype.robofont.layerData'
p2
(dp3
s."
LayerCount: 2
Fore
SplineSet
758 1358 m 1
 886 1358 l 1
 886 -2 l 1
 782 -10 l 1
 772 50 l 1
 690 6 605 -16 530 -16 c 0
 293 -16 124 126 124 493 c 0
 124 852 300 1000 500 1000 c 0
 584 1000 656 986 758 923 c 1
 758 1358 l 1
758 137 m 1
 758 809 l 1
 649 872 584 893 516 893 c 0
 359 893 252 767 252 491 c 0
 252 206 368 91 548 91 c 0
 611 91 662 92 758 137 c 1
EndSplineSet
EndChar

StartChar: dagger
Encoding: 8224 8224 93
Width: 951
VWidth: 0
Flags: HW
LayerCount: 2
Fore
SplineSet
417 1081 m 1
 417 1511 l 1
 531 1511 l 1
 531 1081 l 1
 837 1081 l 1
 837 977 l 1
 531 977 l 1
 531 -238 l 1
 419 -238 l 1
 419 975 l 1
 109 975 l 1
 109 1081 l 1
 417 1081 l 1
EndSplineSet
EndChar

StartChar: daggerdbl
Encoding: 8225 8225 94
Width: 1000
VWidth: 0
Flags: HW
LayerCount: 2
Fore
SplineSet
553 217 m 1
 553 -238 l 1
 443 -238 l 1
 443 217 l 1
 135 217 l 1
 135 322 l 1
 443 322 l 1
 443 981 l 1
 135 981 l 1
 135 1087 l 1
 443 1087 l 1
 443 1513 l 1
 553 1513 l 1
 553 1087 l 1
 863 1087 l 1
 863 981 l 1
 553 981 l 1
 553 322 l 1
 863 322 l 1
 863 217 l 1
 553 217 l 1
EndSplineSet
EndChar

StartChar: degree
Encoding: 176 176 95
Width: 699
VWidth: 0
Flags: HW
LayerCount: 2
Fore
SplineSet
486 1168 m 0
 486 1075 432 1011 347 1011 c 0
 262 1011 213 1073 213 1170 c 0
 213 1266 263 1328 347 1328 c 0
 434 1328 486 1265 486 1168 c 0
350 917 m 1
 351 918 l 1
 487 918 586 1016 586 1169 c 0
 586 1319 490 1421 352 1421 c 0
 214 1421 112 1325 112 1169 c 0
 112 1019 208 917 350 917 c 1
EndSplineSet
EndChar

StartChar: dieresis
Encoding: 168 168 96
Width: 450
VWidth: 0
Flags: HW
LayerCount: 2
Fore
SplineSet
98.833 1198 m 1
 98.833 1049 l 1
 -70.167 1049 l 1
 -70.167 1198 l 1
 98.833 1198 l 1
513.833 1198 m 1
 513.833 1049 l 1
 346.833 1049 l 1
 346.833 1198 l 1
 513.833 1198 l 1
EndSplineSet
EndChar

StartChar: divide
Encoding: 247 247 97
Width: 978
VWidth: 0
Flags: HW
LayerCount: 2
Fore
SplineSet
110 548 m 1
 866 548 l 1
 866 646 l 1
 110 646 l 1
 110 548 l 1
453 771 m 1
 514 771 l 1
 548 779 565 808 565 857 c 0
 565 914 548 951 514 968 c 1
 453 968 l 1
 418 959 401 930 401 881 c 0
 401 824 418 788 453 771 c 1
401 282 m 2
 401 281 l 1
 421 240 459 219 514 219 c 1
 548 242 565 287 565 352 c 1
 544 393 506 414 453 414 c 1
 418 391 401 347 401 282 c 2
EndSplineSet
EndChar

StartChar: dollar
Encoding: 36 36 98
Width: 1035
VWidth: 0
Flags: HW
LayerCount: 2
Fore
SplineSet
850 1145 m 1
 871 1239 l 1
 778.904311477 1280.94457101 680.157027351 1303.76580466 574 1307.46370095 c 1
 574 1465 l 1
 494 1465 l 1
 494.095976702 1306.35051131 l 1
 300.276881026 1292.99903062 140 1197.292297 140 972 c 1
 147.822222693 761.777765118 241.688900194 689.226657928 494.514745265 614.126076967 c 1
 494.83543223 84.0305230409 l 1
 492.893404593 84.0101373412 490.948183908 84 489 84 c 0
 378 84 254 117 162 165 c 1
 137 68 l 1
 243 11 360 -17 489 -17 c 0
 490.96785001 -17 492.933400711 -16.9919127734 494.896537026 -16.9757044327 c 1
 495 -188 l 1
 574 -188 l 1
 574 -11.639982462 l 1
 757.012492389 12.3006321928 902 118.014570936 902 337 c 0
 902 598.669640772 736.923928243 655.134219968 574 708.461164374 c 1
 574 1207.35346513 l 1
 665.676236041 1203.52972911 757.434290583 1182.74524073 850 1145 c 1
494.441796572 734.710266726 m 1
 441.210314283 752.651610066 406.68732012 765.414854491 390 773 c 0
 299 814 260 879 260 972 c 0
 260 1132.04354405 365.934179722 1194.05844418 494.156780232 1205.84227692 c 1
 494.441796572 734.710266726 l 1
574 589.676600023 m 1
 705.690357003 544.859380646 775.023690336 489.4788126 782 336 c 1
 782 184.076169875 691.574867113 112.676910641 574 91.2369873533 c 1
 574 589.676600023 l 1
EndSplineSet
EndChar

StartChar: dotlessi
Encoding: 305 305 99
Width: 703
VWidth: 0
Flags: HW
LayerCount: 2
Fore
SplineSet
103 889 m 1
 295 889 l 1
 295 96 l 1
 103 96 l 1
 103 0 l 1
 615 0 l 1
 615 96 l 1
 423 96 l 1
 423 985 l 1
 103 985 l 1
 103 889 l 1
EndSplineSet
EndChar

StartChar: e
Encoding: 101 101 100
Width: 991
VWidth: 0
Flags: HW
PickledData: "(dp1
S'com.typemytype.robofont.guides'
p2
(tsS'com.typemytype.robofont.layerData'
p3
(dp4
s."
LayerCount: 2
Fore
SplineSet
524 893 m 0
 351 893 267 765 252 558 c 1
 759 558 l 1
 759 609 l 2
 759 783 669 893 524 893 c 0
821 170 m 1
 860 69 l 1
 764 10 639 -16 544 -16 c 0
 267 -16 124 134 124 496 c 0
 124 857 295 1000 528 1000 c 0
 750 1000 878 841 878 604 c 0
 878 574 875 525 870 466 c 1
 252 466 l 1
 256 138 403 82 561 91 c 0
 640 95 738 117 821 170 c 1
EndSplineSet
EndChar

StartChar: eight
Encoding: 56 56 105
Width: 1034
VWidth: 0
Flags: HW
LayerCount: 2
Fore
SplineSet
512 96 m 0
 372 96 262 154 256 305 c 0
 251 433 328 543 492 626 c 1
 625 568 768 487 768 321 c 0
 768 152 646 96 512 96 c 0
545 716 m 1
 408 776 288 840 288 989 c 0
 288 1149 404 1196 530 1196 c 0
 696 1196 768 1107 768 987 c 0
 768 875 676 761 545 716 c 1
160 994 m 0
 160 825 266 736 383 675 c 1
 213 597 128 445 128 304 c 0
 128 93 303 -16 512 -16 c 0
 707 -16 896 89 896 306 c 0
 896 496 783 597 654 665 c 1
 800 727 896 863 896 998 c 0
 896 1197 723 1308 528 1308 c 0
 334 1308 160 1211 160 994 c 0
EndSplineSet
EndChar

StartChar: ellipsis
Encoding: 8230 8230 106
Width: 1155
VWidth: 0
Flags: HW
LayerCount: 2
Fore
SplineSet
273 184 m 1
 273 0 l 1
 125 0 l 1
 125 184 l 1
 273 184 l 1
1031 184 m 1
 1031 0 l 1
 885 0 l 1
 885 184 l 1
 1031 184 l 1
650 184 m 1
 650 0 l 1
 505 0 l 1
 505 184 l 1
 650 184 l 1
EndSplineSet
EndChar

StartChar: emdash
Encoding: 8212 8212 107
Width: 1124
VWidth: 0
Flags: HW
LayerCount: 2
Fore
SplineSet
116 547 m 1
 116 643 l 1
 1006 643 l 1
 1006 547 l 1
 116 547 l 1
EndSplineSet
EndChar

StartChar: endash
Encoding: 8211 8211 108
Width: 894
VWidth: 0
Flags: HW
LayerCount: 2
Fore
SplineSet
116 547 m 1
 116 643 l 1
 776 643 l 1
 776 547 l 1
 116 547 l 1
EndSplineSet
EndChar

StartChar: equal
Encoding: 61 61 109
Width: 1025
VWidth: 0
Flags: HW
LayerCount: 2
Fore
SplineSet
123 467 m 1
 897 467 l 1
 897 371 l 1
 123 371 l 1
 123 467 l 1
123 780 m 1
 897 780 l 1
 897 684 l 1
 123 684 l 1
 123 780 l 1
EndSplineSet
EndChar

StartChar: exclam
Encoding: 33 33 110
Width: 446
VWidth: 0
Flags: HW
LayerCount: 2
Fore
SplineSet
147 182 m 1
 147 -8 l 1
 305 -8 l 1
 305 182 l 1
 147 182 l 1
161 1395 m 1
 161 1194 l 1
 161 369 l 1
 268 369 l 1
 278 1194 l 1
 278 1395 l 1
 161 1395 l 1
EndSplineSet
EndChar

StartChar: exclamdown
Encoding: 161 161 111
Width: 439
VWidth: 0
Flags: HW
LayerCount: 2
Fore
SplineSet
270 758 m 1
 174 758 l 1
 174 -117 l 1
 163 -268 l 1
 281 -268 l 1
 281 -31 l 1
 277.111 232 273.444333333 495 270 758 c 1
293 1137 m 1
 138 1137 l 1
 138 946 l 1
 293 946 l 1
 293 1137 l 1
EndSplineSet
EndChar

StartChar: f
Encoding: 102 102 112
Width: 717
VWidth: 0
Flags: HW
PickledData: "(dp1
S'com.typemytype.robofont.layerData'
p2
(dp3
s."
LayerCount: 2
Fore
SplineSet
265 0 m 1
 265 889 l 1
 73 889 l 1
 73 985 l 1
 265 985 l 1
 265 1271 311 1387 524 1394 c 1
 580 1394 642 1391 709 1368 c 1
 693 1268 l 1
 671 1274 590 1289 552 1289 c 0
 436 1289 393 1250 393 985 c 1
 617 985 l 1
 617 889 l 1
 393 889 l 1
 393 0 l 1
 265 0 l 1
EndSplineSet
EndChar

StartChar: five
Encoding: 53 53 114
Width: 999
VWidth: 0
Flags: HW
PickledData: "(dp1
S'com.typemytype.robofont.layerData'
p2
(dp3
s."
LayerCount: 2
Fore
SplineSet
736 371 m 0
 736 196 634 96 450 96 c 1
 362 95 226 126 157 159 c 1
 131 50 l 1
 198 17 347 -16 443 -16 c 0
 692 -16 864 119 864 369 c 0
 864 626 718 787 498 787 c 0
 419 787 343 771 277 726 c 1
 292 1184 l 1
 796 1184 l 1
 796 1284 l 1
 179 1284 l 1
 179 637 l 1
 250 608 l 1
 329 667 412 683 497 683 c 0
 640 683 736 580 736 371 c 0
EndSplineSet
EndChar

StartChar: florin
Encoding: 402 402 116
Width: 997
VWidth: 0
Flags: HW
LayerCount: 2
Fore
SplineSet
393 -31 m 1
 395 -31 l 1
 511 840 l 1
 801 840 l 1
 819 952 l 1
 525 952 l 1
 537 1057 560 1137 594 1194 c 1
 623 1261 652 1290 727 1290 c 0
 766 1290 813 1282 867 1266 c 1
 895 1380 l 1
 851 1391 811 1399 776 1403 c 1
 703 1403 l 1
 489 1389 441 1186 412 952 c 1
 240 952 l 1
 224 840 l 1
 397 840 l 1
 339 373 300 81 282 -37 c 0
 261 -170 238 -244 165 -276 c 1
 139 -296 108 -306 72 -306 c 0
 67 -306 62 -305 57 -305 c 1
 48 -416 l 1
 65 -417 79 -418 88 -418 c 0
 315 -416 365 -239 393 -31 c 1
EndSplineSet
EndChar

StartChar: four
Encoding: 52 52 117
Width: 1002
VWidth: 0
Flags: HW
PickledData: "(dp1
S'com.typemytype.robofont.layerData'
p2
(dp3
s."
LayerCount: 2
Fore
SplineSet
608 0 m 1
 736 0 l 1
 736 260 l 1
 896 260 l 1
 896 360 l 1
 736 360 l 1
 736 797 l 1
 608 797 l 1
 608 360 l 1
 201 360 l 1
 536 1284 l 1
 411 1284 l 1
 64 356 l 1
 64 260 l 1
 608 260 l 1
 608 0 l 1
EndSplineSet
EndChar

StartChar: fraction
Encoding: 8260 8260 118
Width: 814
VWidth: 0
Flags: HW
LayerCount: 2
Fore
SplineSet
734 1446 m 1
 208 -6 l 1
 109 0 l 1
 632 1446 l 1
 734 1446 l 1
EndSplineSet
EndChar

StartChar: g
Encoding: 103 103 119
Width: 1108
VWidth: 0
Flags: HW
PickledData: "(dp1
S'com.typemytype.robofont.layerData'
p2
(dp3
s."
LayerCount: 2
Fore
SplineSet
534 -204 m 0
 271 -204 259 -114 259 -48 c 0
 259 13 293 59 332 96 c 1
 703 96 l 2
 830 96 850 49 850 -18 c 0
 850 -108 766 -204 534 -204 c 0
978 -10 m 0
 978 128 913 197 695 197 c 2
 316 197 l 1
 316 197 285 221 285 275 c 0
 285 317 319 353 351 400 c 1
 411 376 492 367 559 367 c 0
 785 367 923 490 914 693 c 0
 911 750 884 834 819 883 c 1
 1042 883 l 1
 1042 977 l 1
 755 977 l 2
 719 977 691 982 655 988 c 0
 619 994 610 1000 552 1000 c 0
 338 1000 163 909 163 688 c 0
 163 583 213 505 274 451 c 1
 202 356 167 325 171 246 c 0
 173 206 201 155 242 128 c 1
 202 105 131 21 131 -62 c 0
 131 -153 195 -309 528 -309 c 0
 882 -309 978 -137 978 -10 c 0
558 905 m 0
 733 905 786 810 786 688 c 0
 786 543 717 461 548 461 c 0
 389 461 291 539 291 689 c 0
 291 811 364 905 558 905 c 0
EndSplineSet
EndChar

StartChar: germandbls
Encoding: 223 223 120
Width: 1047
VWidth: 0
Flags: HW
LayerCount: 2
Fore
SplineSet
484 1286 m 0
 666 1286 713 1214 713 1018 c 1
 667 980 636 962 585 933 c 0
 568 923 557 917 553 914 c 2
 525 897 l 2
 485 873 438 839 410 768 c 1
 410 731 l 1
 435 609 523 587 662 538 c 1
 722 519 783 483 789 401 c 1
 799 388 804 361 804 322 c 0
 804 155 754 95 606 95 c 0
 537 95 473 115 414 156 c 1
 376 66 l 1
 457 7 511 -19 615 -19 c 0
 823 -19 917 89 917 321 c 0
 917 476 851 544 770 597 c 1
 700 640 l 1
 665 661 l 1
 593 707 576 725 569 754 c 1
 612 862 690 913 826 963 c 1
 826 1005 825 1045 823 1082 c 0
 810 1303 707 1397 488 1397 c 0
 257 1397 147 1268 147 1008 c 2
 147 0 l 1
 256 0 l 1
 256 997 l 2
 256 1193 320 1286 484 1286 c 0
EndSplineSet
EndChar

StartChar: grave
Encoding: 96 96 121
Width: 486
VWidth: 0
Flags: HW
LayerCount: 2
Fore
SplineSet
419 1022 m 1
 366 973 l 1
 366 973 214 1106 167 1164 c 2
 68 1283 l 1
 174 1363 l 1
 419 1022 l 1
EndSplineSet
EndChar

StartChar: greater
Encoding: 62 62 122
Width: 1009
VWidth: 0
Flags: HW
LayerCount: 2
Fore
SplineSet
774 596 m 1
 130 1030 l 1
 186 1116 l 1
 899 629 l 1
 899 563 l 1
 186 61 l 1
 130 150 l 1
 774 596 l 1
EndSplineSet
EndChar

StartChar: greaterequal
Encoding: 8805 8805 123
Width: 1129
VWidth: 0
Flags: HW
LayerCount: 2
Fore
SplineSet
956 123 m 1
 827 123 l 1
 183 123 l 1
 174 49 l 1
 306 49 l 1
 946 43 l 1
 956 123 l 1
883 723 m 1
 136 369 l 1
 158 274 l 1
 999 678 l 1
 999 768 l 1
 158 1161 l 1
 136 1065 l 1
 883 725 l 1
 883 723 l 1
EndSplineSet
EndChar

StartChar: guillemotleft
Encoding: 171 171 124
Width: 967
VWidth: 0
Flags: HW
LayerCount: 2
Fore
SplineSet
834 817 m 1
 806 936 l 1
 469 600 l 1
 447 520 l 1
 806 160 l 1
 834 279 l 1
 561 545 l 1
 834 817 l 1
493 817 m 1
 463 936 l 1
 128 600 l 1
 106 520 l 1
 463 160 l 1
 493 279 l 1
 219 545 l 1
 493 817 l 1
EndSplineSet
EndChar

StartChar: guillemotright
Encoding: 187 187 125
Width: 968
VWidth: 0
Flags: HW
LayerCount: 2
Fore
SplineSet
497 600 m 1
 159 936 l 1
 131 817 l 1
 404 545 l 1
 131 279 l 1
 159 160 l 1
 518 520 l 1
 497 600 l 1
831 608 m 1
 502 936 l 1
 472 817 l 1
 747 545 l 1
 472 279 l 1
 502 160 l 1
 859 520 l 1
 831 608 l 1
EndSplineSet
EndChar

StartChar: guilsinglleft
Encoding: 8249 8249 126
Width: 621
VWidth: 0
Flags: HW
LayerCount: 2
Fore
SplineSet
449 123 m 1
 489 236 l 1
 222 526 l 1
 489 823 l 1
 449 934 l 1
 109 573 l 1
 109 483 l 1
 449 123 l 1
EndSplineSet
EndChar

StartChar: guilsinglright
Encoding: 8250 8250 127
Width: 620
VWidth: 0
Flags: HW
LayerCount: 2
Fore
SplineSet
397 526 m 1
 130 236 l 1
 170 123 l 1
 508 483 l 1
 508 573 l 1
 170 934 l 1
 130 823 l 1
 397 526 l 1
EndSplineSet
EndChar

StartChar: h
Encoding: 104 104 128
Width: 1002
VWidth: 0
Flags: HW
PickledData: "(dp1
S'com.typemytype.robofont.layerData'
p2
(dp3
s."
LayerCount: 2
Fore
SplineSet
279 800 m 1
 279 0 l 1
 151 0 l 1
 151 1358 l 1
 279 1358 l 1
 279 911 l 1
 386 970 483 1000 578 1000 c 0
 764 1000 855 900 855 663 c 2
 855 0 l 1
 727 0 l 1
 727 669 l 2
 727 826 689 893 570 893 c 0
 499 893 409 870 279 800 c 1
EndSplineSet
EndChar

StartChar: hyphen
Encoding: 45 45 129
Width: 750
VWidth: 0
Flags: HW
LayerCount: 2
Fore
SplineSet
114 449 m 1
 114 565 l 1
 633 565 l 1
 633 449 l 1
 114 449 l 1
EndSplineSet
EndChar

StartChar: i
Encoding: 105 105 130
Width: 698
VWidth: 0
Flags: HW
PickledData: "(dp1
S'com.typemytype.robofont.layerData'
p2
(dp3
s."
LayerCount: 2
Fore
SplineSet
287 1264 m 0
 287 1208 327 1176 378 1176 c 0
 431 1176 468 1206 468 1266 c 0
 468 1326 431 1356 378 1356 c 0
 327 1356 287 1321 287 1264 c 0
122 889 m 1
 314 889 l 1
 314 96 l 1
 122 96 l 1
 122 0 l 1
 634 0 l 1
 634 96 l 1
 442 96 l 1
 442 985 l 1
 122 985 l 1
 122 889 l 1
EndSplineSet
EndChar

StartChar: infinity
Encoding: 8734 8734 135
Width: 1319
VWidth: 0
Flags: HW
LayerCount: 2
Fore
SplineSet
1099 598 m 1
 1100 597 l 1
 1100 456 1054 349 948 349 c 0
 857 349 809 397 722 597 c 0
 719 602 718 607 715 612 c 1
 788 767 829 858 948 858 c 0
 1049 858 1099 771 1099 598 c 1
217 599 m 1
 216 599 l 1
 216 732 255 857 372 857 c 1
 468 858 526 795 580 677 c 2
 616 598 l 1
 545 445 497 349 377 349 c 0
 266 349 217 448 217 599 c 1
964 953 m 1
 963 954 l 1
 789 954 721 827 670 707 c 1
 610 838 551 956 373 956 c 0
 202 956 119 814 119 602 c 0
 119 409 188 250 363 250 c 0
 541 250 609 398 659 498 c 1
 735 346 805 249 952 249 c 0
 1111 249 1196 391 1196 599 c 0
 1196 797 1137 953 964 953 c 1
EndSplineSet
EndChar

StartChar: integral
Encoding: 8747 8747 136
Width: 777
VWidth: 0
Flags: HW
LayerCount: 2
Fore
SplineSet
330 1153 m 1
 329 1153 l 1
 329 975 339 313 339 135 c 0
 339 -142 311 -279 159 -279 c 0
 127 -279 95 -273 62 -260 c 1
 37 -367 l 1
 76 -380 119 -387 168 -387 c 0
 413 -387 446 -144 446 133 c 0
 446 310 437 969 437 1147 c 0
 437 1435 463 1565 618 1565 c 0
 650 1565 680 1559 709 1548 c 1
 735 1651 l 1
 697 1664 656 1671 613 1671 c 0
 360 1671 330 1421 330 1153 c 1
EndSplineSet
EndChar

StartChar: j
Encoding: 106 106 137
Width: 668
VWidth: 0
Flags: HW
PickledData: "(dp1
S'com.typemytype.robofont.layerData'
p2
(dp3
s."
LayerCount: 2
Fore
SplineSet
242 -182 m 0
 179 -182 139 -177 94 -166 c 1
 78 -275 l 1
 133 -291 189 -295 246 -295 c 0
 418 -295 507 -203 507 18 c 2
 507 985 l 1
 155 985 l 1
 155 889 l 1
 379 889 l 1
 379 28 l 2
 379 -123 355 -182 242 -182 c 0
350 1264 m 0
 350 1208 390 1176 441 1176 c 0
 494 1176 531 1206 531 1266 c 0
 531 1326 494 1356 441 1356 c 0
 390 1356 350 1321 350 1264 c 0
EndSplineSet
EndChar

StartChar: k
Encoding: 107 107 138
Width: 971
VWidth: 0
Flags: HW
PickledData: "(dp1
S'com.typemytype.robofont.layerData'
p2
(dp3
s."
LayerCount: 2
Fore
SplineSet
151 0 m 1
 279 0 l 1
 279 377 l 1
 370 458 l 1
 396 429 l 1
 396 429 578 216 771 0 c 1
 932 0 l 1
 468 517 l 1
 896 985 l 1
 730 985 l 1
 531 760 381 603 279 494 c 1
 279 1358 l 1
 151 1358 l 1
 151 0 l 1
EndSplineSet
EndChar

StartChar: l
Encoding: 108 108 139
Width: 695
VWidth: 0
Flags: HW
PickledData: "(dp1
S'com.typemytype.robofont.layerData'
p2
(dp3
s."
LayerCount: 2
Fore
SplineSet
101 1358 m 1
 101 1260 l 1
 293 1260 l 1
 293 96 l 1
 101 96 l 1
 101 0 l 1
 613 0 l 1
 613 96 l 1
 421 96 l 1
 421 1358 l 1
 101 1358 l 1
EndSplineSet
EndChar

StartChar: less
Encoding: 60 60 140
Width: 1005
VWidth: 0
Flags: HW
LayerCount: 2
Fore
SplineSet
233 596 m 1
 874 150 l 1
 819 61 l 1
 108 563 l 1
 108 629 l 1
 819 1116 l 1
 876 1030 l 1
 233 596 l 1
EndSplineSet
EndChar

StartChar: lessequal
Encoding: 8804 8804 141
Width: 1127
VWidth: 0
Flags: HW
LayerCount: 2
Fore
SplineSet
940 129 m 1
 296 129 l 1
 168 129 l 1
 177 43 l 1
 820 43 l 1
 949 43 l 1
 940 129 l 1
243 725 m 1
 989 1065 l 1
 968 1161 l 1
 129 768 l 1
 129 680 l 1
 968 274 l 1
 989 369 l 1
 243 725 l 1
EndSplineSet
EndChar

StartChar: logicalnot
Encoding: 172 172 142
Width: 1099
VWidth: 0
Flags: HW
LayerCount: 2
Fore
SplineSet
115 725 m 1
 115 831 l 1
 966 831 l 1
 966 322 l 1
 848 322 l 1
 848 725 l 1
 115 725 l 1
EndSplineSet
EndChar

StartChar: lozenge
Encoding: 9674 9674 143
Width: 1098
VWidth: 0
Flags: HW
LayerCount: 2
Fore
SplineSet
547 1305 m 1
 588 1228 647 1117 726 973 c 2
 863 723 l 1
 717 454 l 2
 643 319 585 214 547 139 c 1
 509 214 450 317 377 452 c 2
 230 723 l 1
 374 986 l 2
 449 1123 507 1229 547 1305 c 1
528 -33 m 1
 610 47 l 1
 983 721 l 1
 610 1399 l 1
 528 1477 l 1
 110 721 l 1
 249.111 469.444333333 388.444333333 218.111 528 -33 c 1
EndSplineSet
EndChar

StartChar: m
Encoding: 109 109 144
Width: 1512
VWidth: 0
Flags: HW
PickledData: "(dp1
S'com.typemytype.robofont.layerData'
p2
(dp3
s."
LayerCount: 2
Back
SplineSet
1074 1000 m 4
 1259 1000 1367 894 1367 671 c 6
 1367 0 l 5
 1239 0 l 5
 1239 672 l 6
 1239 827 1171 893 1068 893 c 4
 1019 893 908 891 811 830 c 5
 813 820 823 728 823 664 c 6
 823 0 l 5
 695 0 l 5
 695 668 l 6
 695 826 656 893 557 893 c 4
 502 893 376 880 279 823 c 5
 279 0 l 5
 151 0 l 5
 151 985 l 5
 269 985 l 5
 274 928 l 5
 369 984 483 1000 564 1000 c 4
 651 1000 724 978 764 918 c 5
 864 991 993 1000 1074 1000 c 4
EndSplineSet
Fore
SplineSet
1367 671 m 2
 1367 0 l 1
 1239 0 l 1
 1239 672 l 2
 1239 835.521159207 1178.3828125 894.951171875 1072.71875 894.951171875 c 0
 1001.71875 894.951171875 904.345804389 868.117322779 814 828 c 1
 816 818 823 763 823 664 c 2
 823 0 l 1
 695 0 l 1
 695 668 l 2
 695 830.971456044 646.692769134 893.557814218 543.864050132 893.557814218 c 0
 478.28712626 893.557814218 390.536361276 868.103997578 279 827 c 1
 279 0 l 1
 151 0 l 1
 151 985 l 1
 269 985 l 1
 274 928 l 1
 363.991578575 970.092743902 464.972403178 1000.81057089 558.047753949 1000.81057089 c 0
 637.325972534 1000.81057089 710.868756836 978.524736834 767 922 c 1
 875.97265625 976.029296875 988.380859375 999.845703125 1078.78710938 999.845703125 c 0
 1254.98242188 999.845703125 1367 894.190513975 1367 671 c 2
EndSplineSet
EndChar

StartChar: macron
Encoding: 175 175 145
Width: 608
VWidth: 0
Flags: HW
PickledData: "(dp1
S'com.typemytype.robofont.layerData'
p2
(dp3
s."
LayerCount: 2
Fore
SplineSet
64 1078 m 1
 64 1184 l 1
 544 1184 l 1
 544 1078 l 1
 64 1078 l 1
EndSplineSet
EndChar

StartChar: mu
Encoding: 956 956 146
Width: 985
VWidth: 0
Flags: HW
LayerCount: 2
Fore
SplineSet
132 -309 m 1
 133 -309 l 1
 231 -328 l 1
 256 -269 268 -183 268 -68 c 1
 262 55 l 1
 298 8 366 -23 441 -23 c 0
 520 -23 585 4 648 43 c 1
 733 100 l 1
 733 0 l 1
 839 0 l 1
 839 985 l 1
 730 985 l 1
 730 414 l 2
 730 352 724 274 711 180 c 1
 615 120 555 92 454 92 c 0
 321 92 271 177 271 344 c 2
 271 985 l 1
 160 985 l 1
 160 -66 l 2
 160 -162 151 -243 132 -309 c 1
EndSplineSet
EndChar

StartChar: n
Encoding: 110 110 147
Width: 1012
VWidth: 0
Flags: HW
PickledData: "(dp1
S'com.typemytype.robofont.layerData'
p2
(dp3
s."
LayerCount: 2
Fore
SplineSet
279 822 m 1
 279 0 l 1
 151 0 l 1
 151 985 l 1
 256 985 l 1
 265 921 l 1
 369.91797778 970.546806426 477.328191763 1000.1785908 571.880395618 1000.1785908 c 0
 740.350296817 1000.1785908 868.000001245 906.106859894 868 663 c 1
 868 0 l 1
 740 0 l 1
 740 668 l 2
 740 833.795449106 659.640247855 892.982450253 547.010725135 892.982450253 c 0
 468.017072051 892.982450253 373.149806003 863.868157465 279 822 c 1
EndSplineSet
EndChar

StartChar: nine
Encoding: 57 57 148
Width: 1002
VWidth: 0
Flags: HW
LayerCount: 2
Fore
SplineSet
720 763 m 2
 720 679 l 1
 601 602 532 577 445 577 c 0
 302 577 224 664 224 870 c 0
 224 1095 302 1196 470 1196 c 0
 650 1196 720 1051 720 763 c 2
713 565 m 1
 713 310 568 104 224 96 c 1
 245 -16 l 1
 624 7 848 186 848 741 c 0
 848 1105 737 1308 465 1308 c 0
 233 1308 96 1144 96 871 c 0
 96 594 242 467 430 467 c 0
 528 467 609 492 713 565 c 1
EndSplineSet
EndChar

StartChar: notequal
Encoding: 8800 8800 149
Width: 1152
VWidth: 0
Flags: HW
LayerCount: 2
Fore
SplineSet
712 715 m 1
 531 428 l 1
 1021 428 l 1
 1021 334 l 1
 471 334 l 1
 293 53 l 1
 223 111 l 1
 369 334 l 1
 128 334 l 1
 128 428 l 1
 428 428 l 1
 603 715 l 1
 128 715 l 1
 128 807 l 1
 666 807 l 1
 842 1085 l 1
 914 1030 l 1
 771 807 l 1
 1021 807 l 1
 1021 715 l 1
 712 715 l 1
EndSplineSet
EndChar

StartChar: ntilde
Encoding: 241 241 150
Width: 975
VWidth: 0
Flags: HW
LayerCount: 2
Fore
SplineSet
210 1310 m 2
 210 1314 l 1
 211.497266162 1312.93672403 l 1
 210.996795411 1311.96393 210.497698887 1310.98502905 210 1310 c 2
555 1002 m 1
 553 1001 l 1
 473 1001 384 967 339 941 c 0
 316 928 287 908 250 883 c 1
 245 985 l 1
 146 985 l 1
 146 0 l 1
 256 0 l 1
 256 510 l 2
 256 613 260 710 269 799 c 1
 364 858 433 886 548 886 c 0
 670 886 720 793 720 640 c 2
 720 1 l 1
 832 1 l 1
 832 556 l 2
 832 591 834 607 821 675 c 0
 816 700 815 719 815 732 c 0
 810 903 715 1002 555 1002 c 1
211.497266162 1312.93672403 m 1
 279 1265 l 1
 318 1323 350 1351 378 1351 c 0
 388 1351 402 1345 421 1334 c 2
 480 1298 l 2
 536 1264 576 1245 606 1245 c 0
 660 1245 716 1284 758 1379 c 1
 695 1426 l 1
 657 1370 629 1344 603 1344 c 0
 582 1344 537 1373 503 1393 c 0
 446 1426 403 1443 372 1443 c 0
 319.549542522 1443 259.264124588 1405.78393784 211.497266162 1312.93672403 c 1
EndSplineSet
EndChar

StartChar: numbersign
Encoding: 35 35 151
Width: 1082
VWidth: 0
Flags: HW
LayerCount: 2
Fore
SplineSet
630 553 m 1
 674 928 l 1
 450 928 l 1
 408 553 l 1
 630 553 l 1
720 449 m 1
 679 92 l 1
 573 92 l 1
 615 449 l 1
 399 449 l 1
 359 92 l 1
 252 92 l 1
 294 449 l 1
 126 449 l 1
 126 553 l 1
 307 553 l 1
 350 928 l 1
 162 928 l 1
 162 1030 l 1
 360 1030 l 1
 399 1364 l 1
 504 1364 l 1
 466 1030 l 1
 681 1030 l 1
 720 1364 l 1
 823 1364 l 1
 786 1030 l 1
 953 1030 l 1
 953 928 l 1
 774 928 l 1
 733 553 l 1
 918 553 l 1
 918 449 l 1
 720 449 l 1
EndSplineSet
EndChar

StartChar: o
Encoding: 111 111 152
Width: 1016
VWidth: 0
Flags: HW
LayerCount: 2
Fore
SplineSet
508 -16 m 0
 241 -16 124 179 124 492 c 0
 124 823 239 1000 508 1000 c 0
 777 1000 892 823 892 492 c 0
 892 179 775 -16 508 -16 c 0
508 893 m 0
 311 893 252 727 252 492 c 0
 252 254 308 91 508 91 c 0
 708 91 764 254 764 492 c 0
 764 727 705 893 508 893 c 0
EndSplineSet
EndChar

StartChar: one
Encoding: 49 49 158
Width: 799
VWidth: 0
Flags: HW
PickledData: "(dp1
S'com.typemytype.robofont.layerData'
p2
(dp3
s."
LayerCount: 2
Fore
SplineSet
512 100 m 1
 512 1284 l 1
 399 1284 l 1
 118 1155 l 1
 119 1154 l 1
 157 1061 l 1
 384 1167 l 1
 384 100 l 1
 160 100 l 1
 160 0 l 1
 704 0 l 1
 704 100 l 1
 512 100 l 1
EndSplineSet
EndChar

StartChar: ordfeminine
Encoding: 170 170 159
Width: 740
VWidth: 0
Flags: HW
LayerCount: 2
Fore
SplineSet
496 863 m 1
 460.171627282 800.300347744 407.504960615 769.294193782 338 769 c 0
 254 769 220 798 220 886 c 0
 220 1007 316 1004 424 1004 c 1
 496 1007 l 1
 496 863 l 1
359 1265 m 1
 360 1264 l 1
 381 1264 l 2
 484 1264 494 1199 496 1083 c 1
 468 1083 382 1085 349 1085 c 1
 205 1078 128 1024 128 881 c 0
 128 753 196 680 316 680 c 0
 382 680 444 707 503 762 c 1
 506 725 517 699 536 683 c 1
 546 683 569 686 605 693 c 1
 598 789 l 1
 584 801 586 814 586 845 c 2
 586 1074 l 2
 586 1286 538 1353 379 1353 c 0
 282 1353 205 1324 149 1265 c 1
 191 1197 l 1
 224 1242 278 1258 359 1265 c 1
EndSplineSet
EndChar

StartChar: ordmasculine
Encoding: 186 186 160
Width: 754
VWidth: 0
Flags: HW
LayerCount: 2
Fore
SplineSet
373 1349 m 1
 373 1350 l 1
 193 1350 123 1224 123 1015 c 0
 123 778 216 679 373 679 c 0
 556 679 626 806 626 1017 c 0
 626 1237 553 1349 373 1349 c 1
534 1016 m 0
 534 843 504 768 373 768 c 0
 244 768 215 857 215 1016 c 0
 215 1190 246 1264 373 1264 c 0
 501 1264 534 1185 534 1016 c 0
EndSplineSet
EndChar

StartChar: p
Encoding: 112 112 163
Width: 1001
VWidth: 0
Flags: HW
PickledData: "(dp1
S'com.typemytype.robofont.layerData'
p2
(dp3
s."
LayerCount: 2
Fore
SplineSet
279 43 m 1
 279 -389 l 1
 151 -389 l 1
 151 986 l 1
 255 994 l 1
 268 916 l 1
 365 972 447 1000 531 1000 c 0
 732 1000 887 836 887 493 c 0
 887 126 758 -16 521 -16 c 0
 450 -16 358 4 279 43 c 1
279 809 m 1
 279 137 l 1
 375 92 440 91 503 91 c 0
 683 91 759 206 759 491 c 0
 759 775 659 893 518 893 c 0
 447 893 373 863 279 809 c 1
EndSplineSet
EndChar

StartChar: paragraph
Encoding: 182 182 164
Width: 1039
VWidth: 0
Flags: HW
LayerCount: 2
Fore
SplineSet
529 606 m 1
 284 626 189 706 189 972 c 0
 189 1294 529 606 529 606 c 1
124 981 m 0
 124 659 258 564 529 541 c 1
 529 0 l 1
 594 0 l 1
 594 1434 l 1
 529 1434 l 2
 249 1434 124 1293 124 981 c 0
889 0 m 1
 889 1434 l 1
 824 1434 l 1
 824 0 l 1
 889 0 l 1
EndSplineSet
EndChar

StartChar: parenleft
Encoding: 40 40 165
Width: 583
VWidth: 0
Flags: HW
LayerCount: 2
Fore
SplineSet
436 -305 m 1
 436 -307 l 1
 501 -231 l 1
 338 13 251 278 251 648 c 0
 251 1021 337 1279 501 1528 c 1
 436 1604 l 1
 241 1345 133 1059 133 649 c 0
 133 241 240 -44 436 -305 c 1
EndSplineSet
EndChar

StartChar: parenright
Encoding: 41 41 166
Width: 592
VWidth: 0
Flags: HW
LayerCount: 2
Fore
SplineSet
88 -228 m 1
 88 -229 l 1
 152 -305 l 1
 347 -41 456 243 456 646 c 0
 456 1054 348 1339 152 1598 c 1
 88 1525 l 1
 253 1277 340 1016 340 646 c 0
 340 278 252 17 88 -228 c 1
EndSplineSet
EndChar

StartChar: partialdiff
Encoding: 8706 8706 167
Width: 905
VWidth: 0
Flags: HW
LayerCount: 2
Fore
SplineSet
440 714 m 0
 594 714 666 589 666 396 c 0
 666 196 606 87 447 87 c 0
 304 87 232 194 232 407 c 0
 232 608 288 714 440 714 c 0
447 -13 m 1
 447 -14 l 1
 665 -14 774 128 774 412 c 0
 774 901 650 1141 315 1286 c 1
 274 1190 l 1
 362 1145 423 1109 456 1084 c 0
 565 1001 614 886 666 683 c 1
 613 770 539 814 445 814 c 0
 232 814 125 678 125 407 c 0
 125 150 228 -13 447 -13 c 1
EndSplineSet
EndChar

StartChar: percent
Encoding: 37 37 168
Width: 1259
VWidth: 0
Flags: HW
LayerCount: 2
Fore
SplineSet
829 1368 m 1
 317 -10 l 1
 416 -25 l 1
 931 1356 l 1
 829 1368 l 1
352 879 m 0
 261 879 215 958 215 1071 c 0
 215 1182 263 1260 352 1260 c 0
 440 1260 488 1177 488 1069 c 0
 488 961 441 879 352 879 c 0
352 1356 m 1
 352 1357 l 1
 209 1357 116 1241 116 1069 c 0
 116 898 203 782 352 782 c 0
 491 782 586 895 586 1069 c 0
 586 1237 499 1356 352 1356 c 1
903 108 m 0
 812 108 766 187 766 302 c 0
 766 410 815 488 903 488 c 0
 992 488 1042 407 1042 298 c 0
 1042 189 992 108 903 108 c 0
905 585 m 1
 904 586 l 1
 760 586 668 470 668 298 c 0
 668 128 752 11 904 11 c 0
 1044 11 1139 126 1139 298 c 0
 1139 464 1048 585 905 585 c 1
EndSplineSet
EndChar

StartChar: period
Encoding: 46 46 169
Width: 450
VWidth: 0
Flags: HW
PickledData: "(dp1
S'com.typemytype.robofont.layerData'
p2
(dp3
s."
LayerCount: 2
Fore
SplineSet
305 210 m 1
 305 0 l 1
 145 0 l 1
 145 210 l 1
 305 210 l 1
EndSplineSet
EndChar

StartChar: periodcentered
Encoding: 183 183 170
Width: 397
VWidth: 0
Flags: HW
LayerCount: 2
Fore
SplineSet
281 614 m 0
 281 537 259 502 196 502 c 0
 141 502 113 541 113 618 c 0
 113 696 141 735 196 735 c 0
 253 735 281 695 281 614 c 0
EndSplineSet
EndChar

StartChar: perthousand
Encoding: 8240 8240 171
Width: 1456
VWidth: 0
Flags: HW
LayerCount: 2
Fore
SplineSet
396 -25 m 1
 395 -22 l 1
 445.783197996 13.6187708165 491.964711561 62.1720059783 530.474312166 120.50175614 c 1
 546.587862498 112.352619106 565.109357695 108 586 108 c 0
 673 108 719 190 719 298 c 0
 719 361.03881356 703.327929296 415.219500201 672.97810023 449.405761689 c 1
 829.758841657 502.138200557 986.099474914 572.766936866 1142 661 c 1
 1142 745 1112 812 1061 837 c 1
 908.918747866 803.272302954 761.350120716 755.630678875 618.52472529 694.305734502 c 1
 604.206124414 734.720611219 584.703221931 769.060625057 561 795 c 1
 531 807 l 1
 386 704 279 502 279 269 c 0
 279 150 309 48 366 -9 c 1
 373 -14 391 -22 396 -25 c 1
352 882 m 0
 261 882 216 961 216 1074 c 0
 216 1182 263 1263 352 1263 c 0
 440 1263 488 1180 488 1072 c 0
 488 964 441 882 352 882 c 0
352 1359 m 1
 352 1360 l 1
 210 1360 117 1245 117 1072 c 0
 117 901 202 785 352 785 c 0
 491 785 586 898 586 1072 c 0
 586 1241 500 1359 352 1359 c 1
1239 301 m 1
 1240 301 l 1
 1240 190 1193 111 1105 111 c 0
 1012 111 972 194 972 314 c 0
 972 417 1019 491 1104 491 c 0
 1192 491 1239 412 1239 301 c 1
1107 588 m 1
 1107 586 l 1
 965 586 874 471 874 300 c 0
 874 130 958 13 1107 13 c 0
 1246 13 1337 127 1337 301 c 0
 1337 469 1251 588 1107 588 c 1
EndSplineSet
EndChar

StartChar: pi
Encoding: 960 960 172
Width: 1205
VWidth: 0
Flags: HW
LayerCount: 2
Fore
SplineSet
114 1000 m 1
 113 999 l 1
 122 897 l 1
 179 905 246 909 323 909 c 1
 316 573 298 270 269 0 c 1
 382 0 l 1
 413 297 430 600 435 909 c 1
 793 909 l 1
 793 270 l 2
 793 178 797 88 804 0 c 1
 917 0 l 1
 910 83 906 177 906 280 c 2
 906 910 l 1
 1084 910 l 1
 1084 1019 l 1
 382 1019 l 2
 274 1019 185 1013 114 1000 c 1
EndSplineSet
EndChar

StartChar: plus
Encoding: 43 43 173
Width: 996
VWidth: 0
Flags: HW
LayerCount: 2
Fore
SplineSet
550 1010 m 1
 550 645 l 1
 884 645 l 1
 884 541 l 1
 550 541 l 1
 550 176 l 1
 445 176 l 1
 445 541 l 1
 110 541 l 1
 110 645 l 1
 445 645 l 1
 445 1010 l 1
 550 1010 l 1
EndSplineSet
EndChar

StartChar: plusminus
Encoding: 177 177 174
Width: 1142
VWidth: 0
Flags: HW
LayerCount: 2
Fore
SplineSet
625 1042 m 1
 625 719 l 1
 1008 719 l 1
 1008 610 l 1
 625 610 l 1
 625 299 l 1
 518 299 l 1
 518 610 l 1
 135 610 l 1
 135 719 l 1
 518 719 l 1
 518 1042 l 1
 625 1042 l 1
135 82 m 1
 135 188 l 1
 1008 188 l 1
 1008 82 l 1
 135 82 l 1
EndSplineSet
EndChar

StartChar: product
Encoding: 8719 8719 175
Width: 1194
VWidth: 0
Flags: HW
LayerCount: 2
Fore
SplineSet
392 1260 m 1
 801 1260 l 1
 801 -96 l 1
 915 -96 l 1
 915 1260 l 1
 1094 1260 l 1
 1094 1372 l 1
 102 1372 l 1
 102 1260 l 1
 278 1260 l 1
 278 -96 l 1
 392 -96 l 1
 392 1260 l 1
EndSplineSet
EndChar

StartChar: q
Encoding: 113 113 176
Width: 1008
VWidth: 0
Flags: HW
PickledData: "(dp1
S'com.typemytype.robofont.layerData'
p2
(dp3
s."
LayerCount: 2
Fore
SplineSet
503 91 m 0
 323 91 252 206 252 491 c 0
 252 767 333 893 490 893 c 0
 558 893 623 884 732 821 c 1
 732 137 l 1
 644 97 566 91 503 91 c 0
732 42 m 1
 732 -389 l 1
 860 -389 l 1
 860 986 l 1
 756 994 l 1
 732 921 l 1
 732 923 l 1
 630 986 562 1000 478 1000 c 0
 273 1000 124 866 124 493 c 0
 124 126 260 -16 497 -16 c 0
 567 -16 658 0 732 42 c 1
EndSplineSet
EndChar

StartChar: question
Encoding: 63 63 177
Width: 879
VWidth: 0
Flags: HW
LayerCount: 2
Fore
SplineSet
317 195 m 1
 317 -6 l 1
 485 -6 l 1
 485 195 l 1
 317 195 l 1
346 336 m 1
 345 334 l 1
 365 336 430 335 449 337 c 1
 446 382 445 418 445 443 c 0
 445 585 475 610 597 728 c 1
 649 783 l 2
 713 851 760 932 760 1082 c 0
 760 1274 629 1390 443 1390 c 0
 297 1390 164 1293 96 1209 c 1
 156 1119 l 1
 225 1188 263 1212 291 1229 c 0
 322 1249 379 1270 447 1270 c 0
 573 1270 641 1191 641 1075 c 0
 641 978 571 888 484 789 c 0
 400 694 397 684 377 654 c 0
 358 626 334 567 334 510 c 2
 334 473 l 2
 334 412 338 366 346 336 c 1
EndSplineSet
EndChar

StartChar: questiondown
Encoding: 191 191 178
Width: 858
VWidth: 0
Flags: HW
LayerCount: 2
Fore
SplineSet
548 911 m 1
 548 1112 l 1
 380 1112 l 1
 380 911 l 1
 548 911 l 1
521 770 m 2
 524 768 l 1
 521.375779618 768 l 2
 521.251764798 768.669169953 521.126507562 769.335835302 521 770 c 2
521.375779618 768 m 1
 471 768 l 2
 460 768 443 767 420 766 c 1
 420 745 422 678 422 659 c 0
 422 515 399 499 270 373 c 1
 177 277 106 193 106 20 c 0
 106 -174 238 -286 425 -286 c 0
 580 -286 699 -194 768 -105 c 1
 707 -15 l 1
 663 -63 597 -109 573 -124 c 0
 545 -141 484 -163 417 -163 c 0
 289 -163 224 -80 224 31 c 0
 224 166 353 274 445 396 c 0
 499 467 532 512 532 613 c 0
 532 675.003752953 529.094130476 726.352650985 521.375779618 768 c 1
EndSplineSet
EndChar

StartChar: quotedbl
Encoding: 34 34 179
Width: 634
VWidth: 0
Flags: HW
LayerCount: 2
Fore
SplineSet
388 1411 m 1
 388 1249 l 1
 388 950 l 1
 503 950 l 1
 503 1217 l 1
 510 1411 l 1
 388 1411 l 1
125 1411 m 1
 125 1229 l 1
 125 950 l 1
 237 950 l 1
 246 1229 l 1
 246 1411 l 1
 125 1411 l 1
EndSplineSet
EndChar

StartChar: quotedblleft
Encoding: 8220 8220 180
Width: 687
VWidth: 0
Flags: HW
LayerCount: 2
Fore
SplineSet
534 1204 m 1
 539 1238 554 1289 579 1358 c 1
 513 1391 l 1
 458 1277 422 1183 405 1108 c 1
 379 981 l 1
 511 956 l 1
 536 1122 l 1
 536 1141 534 1185 534 1204 c 1
295 1334 m 2
 312 1382 l 1
 244 1415 l 1
 192 1302 159 1212 144 1145 c 2
 113 1006 l 1
 244 981 l 1
 274 1159 l 1
 264 1217 l 1
 269 1259 277 1285 295 1334 c 2
EndSplineSet
EndChar

StartChar: quotedblright
Encoding: 8221 8221 181
Width: 680
VWidth: 0
Flags: HW
LayerCount: 2
Fore
SplineSet
158 1251 m 1
 182 1411 l 1
 313 1386 l 1
 283 1253 l 1
 270 1186 236 1094 181 977 c 1
 114 1010 l 1
 128 1051 l 2
 144 1097 150 1118 156 1155 c 1
 156 1173 158 1232 158 1251 c 1
425 1227 m 1
 450 1384 l 1
 580 1362 l 1
 551 1229 l 2
 535 1154 503 1062 450 952 c 1
 381 985 l 1
 394 1028 415 1064 424 1130 c 1
 424 1178 l 1
 425 1200 425 1216 425 1227 c 1
EndSplineSet
EndChar

StartChar: quoteleft
Encoding: 8216 8216 182
Width: 419
VWidth: 0
Flags: HW
LayerCount: 2
Fore
SplineSet
283 1282 m 1
 298 1325 l 1
 312 1364 l 1
 245 1397 l 1
 200 1299 178 1275 145 1128 c 2
 113 987 l 1
 245 963 l 1
 273 1147 l 1
 263 1194 l 1
 268 1226 278 1263 283 1282 c 1
EndSplineSet
EndChar

StartChar: quoteright
Encoding: 8217 8217 183
Width: 410
VWidth: 0
Flags: HW
LayerCount: 2
Fore
SplineSet
126 1041 m 1
 114 1006 l 1
 115 1006 l 1
 182 973 l 1
 232 1073 264 1160 278 1233 c 1
 313 1382 l 1
 183 1407 l 1
 156 1239 l 1
 158 1159 l 1
 150 1105 143 1082 126 1041 c 1
EndSplineSet
EndChar

StartChar: quotesingle
Encoding: 39 39 184
Width: 371
VWidth: 0
Flags: HW
LayerCount: 2
Fore
SplineSet
125 1411 m 1
 125 1239 l 1
 125 950 l 1
 239 950 l 1
 239 1212 l 1
 248 1411 l 1
 125 1411 l 1
EndSplineSet
EndChar

StartChar: r
Encoding: 114 114 185
Width: 659
VWidth: 0
Flags: HW
PickledData: "(dp1
S'com.typemytype.robofont.layerData'
p2
(dp3
s."
LayerCount: 2
Fore
SplineSet
278 899 m 1
 273 985 l 1
 151 985 l 1
 151 0 l 1
 279 0 l 1
 279 804 l 1
 334 849 449 893 557 893 c 1
 557 1000 l 1
 467 996 347 952 278 899 c 1
EndSplineSet
EndChar

StartChar: radical
Encoding: 8730 8730 186
Width: 1086
VWidth: 0
Flags: HW
LayerCount: 2
Fore
SplineSet
112 846 m 1
 121 756 l 1
 293 778 l 1
 504 -8 l 1
 674 -8 l 1
 983 1372 l 1
 880 1372 l 1
 792 971 l 2
 717 630 655 353 604 98 c 1
 556 170 l 1
 374 885 l 1
 112 846 l 1
EndSplineSet
EndChar

StartChar: registered
Encoding: 174 174 187
Width: 1218
VWidth: 0
Flags: HW
LayerCount: 2
Fore
SplineSet
740 997 m 2
 740 996 l 2
 740 905 705 887 579 887 c 2
 508 887 l 1
 508 1112 l 1
 573 1112 l 2
 697 1112 740 1101 740 997 c 2
587 1187 m 2
 430 1187 l 1
 430 564 l 1
 508 564 l 1
 508 808 l 1
 616 808 l 1
 661 723 700 640 733 558 c 1
 812 572 l 1
 791 622 l 2
 769 675 734 742 692 822 c 1
 771 839 817 901 817 1000 c 0
 817 1144 737 1187 587 1187 c 2
1002 871 m 1
 1000 871 l 1
 1000 623 844 428 605 428 c 0
 380 428 211 604 211 874 c 0
 211 1136 374 1319 606 1319 c 0
 835 1319 1002 1139 1002 871 c 1
1090 873 m 1
 1089 874 l 1
 1089 1180 892 1405 605 1405 c 0
 328 1405 122 1193 122 874 c 0
 122 570 311 340 605 340 c 0
 886 340 1090 554 1090 873 c 1
EndSplineSet
EndChar

StartChar: s
Encoding: 115 115 188
Width: 868
VWidth: 0
Flags: HW
PickledData: "(dp1
S'com.typemytype.robofont.layerData'
p2
(dp3
s."
LayerCount: 2
Fore
SplineSet
449 91 m 0
 339 91 252 114 187 142 c 1
 165 39 l 1
 245 2 351 -16 443 -16 c 0
 618 -16 757 72 757 273 c 0
 757 434 695 491 542 540 c 2
 395 587 l 2
 295 619 246 652 246 747 c 0
 246 859 344 893 465 893 c 0
 546 893 626 874 680 845 c 1
 704 947 l 1
 623 984 537 1000 446 1000 c 0
 279 1000 124 919 124 752 c 0
 124 571 207 519 357 472 c 2
 507 425 l 2
 588 400 637 362 637 263 c 0
 637 153 570 91 449 91 c 0
EndSplineSet
EndChar

StartChar: section
Encoding: 167 167 189
Width: 935
VWidth: 0
Flags: HW
LayerCount: 2
Fore
SplineSet
769 200 m 1
 768 199 l 1
 768 288 741 353 687 395 c 1
 764 458 803 532 803 616 c 0
 803 835 675 846 418 959 c 0
 335 995 276 1031 276 1133 c 0
 276 1256 346 1303 479 1303 c 0
 564 1303 645 1277 722 1225 c 1
 768 1313 l 1
 699 1376 602 1407 477 1407 c 0
 284 1407 165 1319 165 1124 c 0
 165 1025 203 952 280 903 c 1
 187 851 141 777 141 682 c 0
 141 519 209 487 410 400 c 2
 550 339 l 2
 626 305 657 275 657 187 c 0
 657 80 591 26 460 26 c 0
 361 26 270 56 185 116 c 1
 142 26 l 1
 222 -50 314 -79 458 -79 c 0
 654 -79 769 8 769 200 c 1
633 476 m 2
 606 444 l 1
 606 446 l 1
 573 463 530 479 479 500 c 2
 370 545 l 1
 291 574 252 609 252 698 c 0
 252 765 286 818 353 859 c 1
 389 842 532 785 563 771 c 0
 627 742 695 699 695 617 c 1
 694 546 667 516 633 476 c 2
EndSplineSet
EndChar

StartChar: semicolon
Encoding: 59 59 190
Width: 462
VWidth: 0
Flags: HW
LayerCount: 2
Fore
SplineSet
321 129 m 2
 321 305 l 1
 150 305 l 1
 150 86 l 1
 224 86 l 1
 219 22 190 -51 138 -133 c 1
 184 -186 l 1
 268 -90 321 -2 321 129 c 2
145 862 m 1
 145 649 l 1
 320 649 l 1
 320 862 l 1
 145 862 l 1
EndSplineSet
EndChar

StartChar: seven
Encoding: 55 55 191
Width: 875
VWidth: 0
Flags: HW
LayerCount: 2
Fore
SplineSet
769 1181 m 2
 769 1301 l 1
 106 1301 l 1
 106 1300 106 1261 105 1184 c 1
 655 1184 l 1
 642 1139 626 1090 601 1035 c 2
 520 856 l 2
 344 468 260 230 257 3 c 1
 379 3 l 1
 379 146 430 343 487 500 c 0
 548 667 741 1086 758 1129 c 0
 765 1148 769 1166 769 1181 c 2
EndSplineSet
EndChar

StartChar: six
Encoding: 54 54 192
Width: 998
VWidth: 0
Flags: HW
LayerCount: 2
Fore
SplineSet
231 727 m 1
 242 996 376 1188 720 1196 c 1
 699 1308 l 1
 311 1269 96 1106 96 551 c 0
 96 190 207 -16 479 -16 c 0
 711 -16 848 148 848 421 c 0
 848 698 702 825 514 825 c 0
 416 825 335 800 231 727 c 1
224 529 m 2
 224 613 l 1
 343 690 412 715 499 715 c 0
 642 715 720 628 720 422 c 0
 720 197 642 96 474 96 c 0
 294 96 224 241 224 529 c 2
EndSplineSet
EndChar

StartChar: slash
Encoding: 47 47 193
Width: 888
VWidth: 0
Flags: HW
LayerCount: 2
Fore
SplineSet
812 1458 m 1
 178 -121 l 1
 99 -84 l 1
 731 1497 l 1
 812 1458 l 1
EndSplineSet
EndChar

StartChar: sterling
Encoding: 163 163 195
Width: 1039
VWidth: 0
Flags: HW
LayerCount: 2
Fore
SplineSet
388 42 m 1
 387 41 l 1
 425 41 648 -23 684 -23 c 0
 775 -23 854 3 921 55 c 1
 880 162 l 1
 824 116 762 91 695 91 c 1
 676 93 637 97 585 112 c 2
 537 126 l 1
 484 144 452 151 416 151 c 2
 406 151 l 1
 385 150 l 2
 356 148 330 139 306 129 c 1
 306 130 305 131 304 132 c 1
 388 220 432 295 434 419 c 1
 432 461 406 601 405 615 c 1
 720 615 l 1
 720 724 l 1
 383 724 l 1
 368 783 360 848 360 917 c 0
 360 1117 409 1208 565 1217 c 1
 635 1217 l 1
 702 1212 760 1183 810 1128 c 1
 852 1221 l 1
 790 1301 719 1329 591 1329 c 0
 362 1329 248 1203 248 934 c 0
 248 862 256 793 273 726 c 1
 140 726 l 1
 140 617 l 1
 295 617 l 1
 313 540 322 478 322 429 c 0
 319 248 224 176 135 97 c 1
 185 -15 l 1
 226 3 l 1
 270 29 327 42 388 42 c 1
EndSplineSet
EndChar

StartChar: summation
Encoding: 8721 8721 196
Width: 1020
VWidth: 0
Flags: HW
LayerCount: 2
Fore
SplineSet
896 1374 m 1
 896 1264 l 1
 277 1264 l 1
 277 1260 l 1
 675 637 l 1
 264 -51 l 1
 264 -55 l 1
 905 -55 l 1
 905 -168 l 1
 122 -168 l 1
 122 -57 l 1
 537 635 l 1
 133 1264 l 1
 133 1374 l 1
 896 1374 l 1
EndSplineSet
EndChar

StartChar: t
Encoding: 116 116 197
Width: 754
VWidth: 0
Flags: HW
PickledData: "(dp1
S'com.typemytype.robofont.layerData'
p2
(dp3
s."
LayerCount: 2
Fore
SplineSet
484 -17 m 1
 270 -11 221 119 221 388 c 2
 221 889 l 1
 68 889 l 1
 68 985 l 1
 225 985 l 1
 250 1267 l 1
 349 1267 l 1
 349 985 l 1
 657 985 l 1
 657 889 l 1
 349 889 l 1
 349 386 l 2
 349 123 412 92 518 92 c 0
 580 92 641 99 668 103 c 1
 673 -3 l 1
 605 -12 545 -17 484 -17 c 1
EndSplineSet
EndChar

StartChar: three
Encoding: 51 51 198
Width: 1002
VWidth: 0
Flags: HW
PickledData: "(dp1
S'com.typemytype.robofont.layerData'
p2
(dp3
s."
LayerCount: 2
Fore
SplineSet
441 -16 m 0
 664 -16 871 79 871 349 c 0
 871 529 728 677 569 691 c 1
 728 739 819 820 819 994 c 0
 819 1197 672 1308 448 1308 c 0
 351 1308 245 1289 132 1252 c 1
 159 1145 l 1
 258 1179 356 1196 453 1196 c 0
 610 1196 704 1120 704 980 c 0
 704 795 531 744 276 711 c 1
 285 608 l 1
 334 619 407 627 460 627 c 0
 608 627 755 543 755 360 c 0
 755 150 612 96 446 96 c 0
 362 96 249 111 159 145 c 1
 132 40 l 1
 231 3 334 -16 441 -16 c 0
EndSplineSet
EndChar

StartChar: trademark
Encoding: 8482 8482 199
Width: 1096
VWidth: 0
Flags: HW
LayerCount: 2
Fore
SplineSet
108 1192 m 1
 243 1192 l 1
 243 655 l 1
 318 655 l 1
 318 1192 l 1
 449 1192 l 1
 449 1268 l 1
 108 1268 l 1
 108 1192 l 1
707 737 m 1
 760 737 l 1
 883 1057 l 1
 888 1057 l 1
 888 655 l 1
 956 655 l 1
 956 1268 l 1
 892 1268 l 1
 735 846 l 1
 733 846 l 1
 582 1268 l 1
 517 1268 l 1
 517 655 l 1
 587 655 l 1
 587 1057 l 1
 591 1057 l 1
 707 737 l 1
EndSplineSet
EndChar

StartChar: two
Encoding: 50 50 200
Width: 961
VWidth: 0
Flags: HW
LayerCount: 2
Fore
SplineSet
437 1208 m 0
 633 1208 706 1109 706 970 c 0
 706 814 601 693 482 584 c 0
 316 432 133 269 131 0 c 1
 813 0 l 1
 813 100 l 1
 258 100 l 1
 280 240 394 355 503 456 c 0
 663 604 824 754 824 971 c 0
 824 1148 704 1308 453 1308 c 0
 304 1308 241 1286 145 1254 c 1
 172 1157 l 1
 178 1160 299 1208 437 1208 c 0
EndSplineSet
EndChar

StartChar: u
Encoding: 117 117 201
Width: 1012
VWidth: 0
Flags: HW
PickledData: "(dp1
S'com.typemytype.robofont.layerData'
p2
(dp3
s."
LayerCount: 2
Fore
SplineSet
733 163 m 1
 733 985 l 1
 861 985 l 1
 861 0 l 1
 756 0 l 1
 747 64 l 1
 612 0 535 -16 438 -16 c 0
 235 -16 144 93 144 321 c 2
 144 985 l 1
 272 985 l 1
 272 316 l 2
 272 159 315 91 451 91 c 0
 525 91 613 97 733 163 c 1
EndSplineSet
EndChar

StartChar: underscore
Encoding: 95 95 206
Width: 1066
VWidth: 0
Flags: HW
LayerCount: 2
Fore
SplineSet
100 -219 m 1
 100 -125 l 1
 968 -125 l 1
 968 -219 l 1
 100 -219 l 1
EndSplineSet
EndChar

StartChar: v
Encoding: 118 118 207
Width: 944
VWidth: 0
Flags: HW
PickledData: "(dp1
S'com.typemytype.robofont.layerData'
p2
(dp3
s."
LayerCount: 2
Fore
SplineSet
480 148 m 1
 736 985 l 1
 863 985 l 1
 547 0 l 1
 410 0 l 1
 81 985 l 1
 211 985 l 1
 480 148 l 1
EndSplineSet
EndChar

StartChar: w
Encoding: 119 119 208
Width: 1334
VWidth: 0
Flags: HW
PickledData: "(dp1
S'com.typemytype.robofont.layerData'
p2
(dp3
s."
LayerCount: 2
Fore
SplineSet
734 763 m 1
 949 104 l 1
 1126 985 l 1
 1251 985 l 1
 1035 0 l 1
 865 0 l 1
 675 616 l 1
 472 0 l 1
 302 0 l 1
 83 985 l 1
 208 985 l 1
 397 104 l 1
 616 763 l 1
 734 763 l 1
EndSplineSet
EndChar

StartChar: x
Encoding: 120 120 209
Width: 929
VWidth: 0
Flags: HW
PickledData: "(dp1
S'com.typemytype.robofont.layerData'
p2
(dp3
s."
LayerCount: 2
Fore
SplineSet
710 0 m 1
 474 408 l 1
 234 0 l 1
 104 0 l 1
 401 504 l 1
 116 985 l 1
 242 985 l 1
 473 593 l 1
 685 985 l 1
 813 985 l 1
 547 503 l 1
 832 0 l 1
 710 0 l 1
EndSplineSet
EndChar

StartChar: y
Encoding: 121 121 210
Width: 983
VWidth: 0
Flags: HW
PickledData: "(dp1
S'com.typemytype.robofont.layerData'
p2
(dp3
s."
LayerCount: 2
Fore
SplineSet
295 -390 m 0
 442 -390 496 -254 578 -16 c 2
 924 985 l 1
 788 985 l 1
 526 187 l 1
 526 187 213 948 199 985 c 1
 62 985 l 1
 467 26 l 1
 440 -55 l 2
 402 -169 377 -279 286 -279 c 0
 256 -279 211 -270 151 -252 c 1
 150 -253 l 1
 130 -355 l 1
 190 -378 244 -390 295 -390 c 0
EndSplineSet
EndChar

StartChar: yen
Encoding: 165 165 212
Width: 1083
VWidth: 0
Flags: HW
LayerCount: 2
Fore
SplineSet
205 379 m 1
 489 379 l 1
 489 2 l 1
 599 2 l 1
 599 377 l 1
 879 377 l 1
 879 481 l 1
 599 481 l 1
 599 582 l 1
 610 645 l 1
 879 645 l 1
 879 750 l 1
 657 750 l 1
 974 1366 l 1
 849 1366 l 1
 849 1366 749 1162 548 755 c 1
 543 755 l 1
 242 1368 l 1
 109 1368 l 1
 430 752 l 1
 205 752 l 1
 205 647 l 1
 476 647 l 1
 489 584 l 1
 489 483 l 1
 205 483 l 1
 205 379 l 1
EndSplineSet
EndChar

StartChar: z
Encoding: 122 122 213
Width: 847
VWidth: 0
Flags: HW
PickledData: "(dp1
S'com.typemytype.robofont.layerData'
p2
(dp3
s."
LayerCount: 2
Fore
SplineSet
577 889 m 1
 144 889 l 1
 144 985 l 1
 706 985 l 1
 716 900 l 1
 274 96 l 1
 731 96 l 1
 731 0 l 1
 147 0 l 1
 133 102 l 1
 577 889 l 1
EndSplineSet
EndChar

StartChar: zero
Encoding: 48 48 214
Width: 1012
VWidth: 0
Flags: HW
PickledData: "(dp1
S'com.typemytype.robofont.layerData'
p2
(dp3
s."
LayerCount: 2
Fore
SplineSet
133 646 m 0
 133 293 181 -16 507 -16 c 0
 828 -16 879 289 879 646 c 0
 879 1003 830 1308 507 1308 c 0
 190 1308 133 1030 133 646 c 0
507 1208 m 1
 733 1199 763 986 763 650 c 0
 763 406 764 92 507 92 c 1
 280 101 249 310 249 646 c 0
 249 929 266 1208 497 1208 c 2
 507 1208 l 1
EndSplineSet
EndChar
